<?xml version="1.0" encoding="utf-8" standalone="no"?>
<!DOCTYPE svg PUBLIC "-//W3C//DTD SVG 1.1//EN"
  "http://www.w3.org/Graphics/SVG/1.1/DTD/svg11.dtd">
<svg xmlns:xlink="http://www.w3.org/1999/xlink" width="856.680937pt" height="421.919296pt" viewBox="0 0 856.680937 421.919296" xmlns="http://www.w3.org/2000/svg" version="1.1">
 <metadata>
  <rdf:RDF xmlns:dc="http://purl.org/dc/elements/1.1/" xmlns:cc="http://creativecommons.org/ns#" xmlns:rdf="http://www.w3.org/1999/02/22-rdf-syntax-ns#">
   <cc:Work>
    <dc:type rdf:resource="http://purl.org/dc/dcmitype/StillImage"/>
    <dc:date>2026-05-25T22:17:24.164811</dc:date>
    <dc:format>image/svg+xml</dc:format>
    <dc:creator>
     <cc:Agent>
      <dc:title>Matplotlib v3.10.0, https://matplotlib.org/</dc:title>
     </cc:Agent>
    </dc:creator>
   </cc:Work>
  </rdf:RDF>
 </metadata>
 <defs>
  <style type="text/css">*{stroke-linejoin: round; stroke-linecap: butt}</style>
 </defs>
 <g id="figure_1">
  <g id="patch_1">
   <path d="M 0 421.919296 
L 856.680937 421.919296 
L 856.680937 0 
L 0 0 
z
" style="fill: #ffffff"/>
  </g>
  <g id="axes_1">
   <g id="patch_2">
    <path d="M 41.570938 372.216603 
L 849.480937 372.216603 
L 849.480937 35.7555 
L 41.570938 35.7555 
z
" style="fill: #ffffff"/>
   </g>
   <g id="line2d_1">
    <path d="M 41.570938 324.150731 
L 849.480937 324.150731 
" clip-path="url(#p78778b014c)" style="fill: none; stroke-dasharray: 4.44,1.92; stroke-dashoffset: 0; stroke: #000000; stroke-width: 1.2"/>
   </g>
   <g id="patch_3">
    <path d="M 41.570938 324.150731 
L 849.480937 324.150731 
L 849.480937 54.127598 
L 41.570938 54.127598 
z
" clip-path="url(#p78778b014c)" style="fill: #008000; opacity: 0.04; stroke: #008000; stroke-linejoin: miter"/>
   </g>
   <g id="patch_4">
    <path d="M 41.570938 360.200135 
L 849.480937 360.200135 
L 849.480937 324.150731 
L 41.570938 324.150731 
z
" clip-path="url(#p78778b014c)" style="fill: #ffa500; opacity: 0.04; stroke: #ffa500; stroke-linejoin: miter"/>
   </g>
   <g id="matplotlib.axis_1">
    <g id="xtick_1">
     <g id="line2d_2">
      <defs>
       <path id="m038b6d28ab" d="M 0 0 
L 0 3.5 
" style="stroke: #000000; stroke-width: 0.8"/>
      </defs>
      <g>
       <use xlink:href="#m038b6d28ab" x="106.542721" y="372.216603" style="stroke: #000000; stroke-width: 0.8"/>
      </g>
     </g>
     <g id="text_1">
      <!-- AIME 2025 -->
      <g transform="translate(55.684142 404.608917) rotate(-20) scale(0.1 -0.1)">
       <defs>
        <path id="DejaVuSans-41" d="M 2188 4044 
L 1331 1722 
L 3047 1722 
L 2188 4044 
z
M 1831 4666 
L 2547 4666 
L 4325 0 
L 3669 0 
L 3244 1197 
L 1141 1197 
L 716 0 
L 50 0 
L 1831 4666 
z
" transform="scale(0.015625)"/>
        <path id="DejaVuSans-49" d="M 628 4666 
L 1259 4666 
L 1259 0 
L 628 0 
L 628 4666 
z
" transform="scale(0.015625)"/>
        <path id="DejaVuSans-4d" d="M 628 4666 
L 1569 4666 
L 2759 1491 
L 3956 4666 
L 4897 4666 
L 4897 0 
L 4281 0 
L 4281 4097 
L 3078 897 
L 2444 897 
L 1241 4097 
L 1241 0 
L 628 0 
L 628 4666 
z
" transform="scale(0.015625)"/>
        <path id="DejaVuSans-45" d="M 628 4666 
L 3578 4666 
L 3578 4134 
L 1259 4134 
L 1259 2753 
L 3481 2753 
L 3481 2222 
L 1259 2222 
L 1259 531 
L 3634 531 
L 3634 0 
L 628 0 
L 628 4666 
z
" transform="scale(0.015625)"/>
        <path id="DejaVuSans-20" transform="scale(0.015625)"/>
        <path id="DejaVuSans-32" d="M 1228 531 
L 3431 531 
L 3431 0 
L 469 0 
L 469 531 
Q 828 903 1448 1529 
Q 2069 2156 2228 2338 
Q 2531 2678 2651 2914 
Q 2772 3150 2772 3378 
Q 2772 3750 2511 3984 
Q 2250 4219 1831 4219 
Q 1534 4219 1204 4116 
Q 875 4013 500 3803 
L 500 4441 
Q 881 4594 1212 4672 
Q 1544 4750 1819 4750 
Q 2544 4750 2975 4387 
Q 3406 4025 3406 3419 
Q 3406 3131 3298 2873 
Q 3191 2616 2906 2266 
Q 2828 2175 2409 1742 
Q 1991 1309 1228 531 
z
" transform="scale(0.015625)"/>
        <path id="DejaVuSans-30" d="M 2034 4250 
Q 1547 4250 1301 3770 
Q 1056 3291 1056 2328 
Q 1056 1369 1301 889 
Q 1547 409 2034 409 
Q 2525 409 2770 889 
Q 3016 1369 3016 2328 
Q 3016 3291 2770 3770 
Q 2525 4250 2034 4250 
z
M 2034 4750 
Q 2819 4750 3233 4129 
Q 3647 3509 3647 2328 
Q 3647 1150 3233 529 
Q 2819 -91 2034 -91 
Q 1250 -91 836 529 
Q 422 1150 422 2328 
Q 422 3509 836 4129 
Q 1250 4750 2034 4750 
z
" transform="scale(0.015625)"/>
        <path id="DejaVuSans-35" d="M 691 4666 
L 3169 4666 
L 3169 4134 
L 1269 4134 
L 1269 2991 
Q 1406 3038 1543 3061 
Q 1681 3084 1819 3084 
Q 2600 3084 3056 2656 
Q 3513 2228 3513 1497 
Q 3513 744 3044 326 
Q 2575 -91 1722 -91 
Q 1428 -91 1123 -41 
Q 819 9 494 109 
L 494 744 
Q 775 591 1075 516 
Q 1375 441 1709 441 
Q 2250 441 2565 725 
Q 2881 1009 2881 1497 
Q 2881 1984 2565 2268 
Q 2250 2553 1709 2553 
Q 1456 2553 1204 2497 
Q 953 2441 691 2322 
L 691 4666 
z
" transform="scale(0.015625)"/>
       </defs>
       <use xlink:href="#DejaVuSans-41"/>
       <use xlink:href="#DejaVuSans-49" transform="translate(68.408203 0)"/>
       <use xlink:href="#DejaVuSans-4d" transform="translate(97.900391 0)"/>
       <use xlink:href="#DejaVuSans-45" transform="translate(184.179688 0)"/>
       <use xlink:href="#DejaVuSans-20" transform="translate(247.363281 0)"/>
       <use xlink:href="#DejaVuSans-32" transform="translate(279.150391 0)"/>
       <use xlink:href="#DejaVuSans-30" transform="translate(342.773438 0)"/>
       <use xlink:href="#DejaVuSans-32" transform="translate(406.396484 0)"/>
       <use xlink:href="#DejaVuSans-35" transform="translate(470.019531 0)"/>
      </g>
     </g>
    </g>
    <g id="xtick_2">
     <g id="line2d_3">
      <g>
       <use xlink:href="#m038b6d28ab" x="219.537126" y="372.216603" style="stroke: #000000; stroke-width: 0.8"/>
      </g>
     </g>
     <g id="text_2">
      <!-- IFBench -->
      <g transform="translate(181.342374 399.999661) rotate(-20) scale(0.1 -0.1)">
       <defs>
        <path id="DejaVuSans-46" d="M 628 4666 
L 3309 4666 
L 3309 4134 
L 1259 4134 
L 1259 2759 
L 3109 2759 
L 3109 2228 
L 1259 2228 
L 1259 0 
L 628 0 
L 628 4666 
z
" transform="scale(0.015625)"/>
        <path id="DejaVuSans-42" d="M 1259 2228 
L 1259 519 
L 2272 519 
Q 2781 519 3026 730 
Q 3272 941 3272 1375 
Q 3272 1813 3026 2020 
Q 2781 2228 2272 2228 
L 1259 2228 
z
M 1259 4147 
L 1259 2741 
L 2194 2741 
Q 2656 2741 2882 2914 
Q 3109 3088 3109 3444 
Q 3109 3797 2882 3972 
Q 2656 4147 2194 4147 
L 1259 4147 
z
M 628 4666 
L 2241 4666 
Q 2963 4666 3353 4366 
Q 3744 4066 3744 3513 
Q 3744 3084 3544 2831 
Q 3344 2578 2956 2516 
Q 3422 2416 3680 2098 
Q 3938 1781 3938 1306 
Q 3938 681 3513 340 
Q 3088 0 2303 0 
L 628 0 
L 628 4666 
z
" transform="scale(0.015625)"/>
        <path id="DejaVuSans-65" d="M 3597 1894 
L 3597 1613 
L 953 1613 
Q 991 1019 1311 708 
Q 1631 397 2203 397 
Q 2534 397 2845 478 
Q 3156 559 3463 722 
L 3463 178 
Q 3153 47 2828 -22 
Q 2503 -91 2169 -91 
Q 1331 -91 842 396 
Q 353 884 353 1716 
Q 353 2575 817 3079 
Q 1281 3584 2069 3584 
Q 2775 3584 3186 3129 
Q 3597 2675 3597 1894 
z
M 3022 2063 
Q 3016 2534 2758 2815 
Q 2500 3097 2075 3097 
Q 1594 3097 1305 2825 
Q 1016 2553 972 2059 
L 3022 2063 
z
" transform="scale(0.015625)"/>
        <path id="DejaVuSans-6e" d="M 3513 2113 
L 3513 0 
L 2938 0 
L 2938 2094 
Q 2938 2591 2744 2837 
Q 2550 3084 2163 3084 
Q 1697 3084 1428 2787 
Q 1159 2491 1159 1978 
L 1159 0 
L 581 0 
L 581 3500 
L 1159 3500 
L 1159 2956 
Q 1366 3272 1645 3428 
Q 1925 3584 2291 3584 
Q 2894 3584 3203 3211 
Q 3513 2838 3513 2113 
z
" transform="scale(0.015625)"/>
        <path id="DejaVuSans-63" d="M 3122 3366 
L 3122 2828 
Q 2878 2963 2633 3030 
Q 2388 3097 2138 3097 
Q 1578 3097 1268 2742 
Q 959 2388 959 1747 
Q 959 1106 1268 751 
Q 1578 397 2138 397 
Q 2388 397 2633 464 
Q 2878 531 3122 666 
L 3122 134 
Q 2881 22 2623 -34 
Q 2366 -91 2075 -91 
Q 1284 -91 818 406 
Q 353 903 353 1747 
Q 353 2603 823 3093 
Q 1294 3584 2113 3584 
Q 2378 3584 2631 3529 
Q 2884 3475 3122 3366 
z
" transform="scale(0.015625)"/>
        <path id="DejaVuSans-68" d="M 3513 2113 
L 3513 0 
L 2938 0 
L 2938 2094 
Q 2938 2591 2744 2837 
Q 2550 3084 2163 3084 
Q 1697 3084 1428 2787 
Q 1159 2491 1159 1978 
L 1159 0 
L 581 0 
L 581 4863 
L 1159 4863 
L 1159 2956 
Q 1366 3272 1645 3428 
Q 1925 3584 2291 3584 
Q 2894 3584 3203 3211 
Q 3513 2838 3513 2113 
z
" transform="scale(0.015625)"/>
       </defs>
       <use xlink:href="#DejaVuSans-49"/>
       <use xlink:href="#DejaVuSans-46" transform="translate(29.492188 0)"/>
       <use xlink:href="#DejaVuSans-42" transform="translate(87.011719 0)"/>
       <use xlink:href="#DejaVuSans-65" transform="translate(155.615234 0)"/>
       <use xlink:href="#DejaVuSans-6e" transform="translate(217.138672 0)"/>
       <use xlink:href="#DejaVuSans-63" transform="translate(280.517578 0)"/>
       <use xlink:href="#DejaVuSans-68" transform="translate(335.498047 0)"/>
      </g>
     </g>
    </g>
    <g id="xtick_3">
     <g id="line2d_4">
      <g>
       <use xlink:href="#m038b6d28ab" x="332.531532" y="372.216603" style="stroke: #000000; stroke-width: 0.8"/>
      </g>
     </g>
     <g id="text_3">
      <!-- LiveCodeBench -->
      <g transform="translate(259.26422 412.765029) rotate(-20) scale(0.1 -0.1)">
       <defs>
        <path id="DejaVuSans-4c" d="M 628 4666 
L 1259 4666 
L 1259 531 
L 3531 531 
L 3531 0 
L 628 0 
L 628 4666 
z
" transform="scale(0.015625)"/>
        <path id="DejaVuSans-69" d="M 603 3500 
L 1178 3500 
L 1178 0 
L 603 0 
L 603 3500 
z
M 603 4863 
L 1178 4863 
L 1178 4134 
L 603 4134 
L 603 4863 
z
" transform="scale(0.015625)"/>
        <path id="DejaVuSans-76" d="M 191 3500 
L 800 3500 
L 1894 563 
L 2988 3500 
L 3597 3500 
L 2284 0 
L 1503 0 
L 191 3500 
z
" transform="scale(0.015625)"/>
        <path id="DejaVuSans-43" d="M 4122 4306 
L 4122 3641 
Q 3803 3938 3442 4084 
Q 3081 4231 2675 4231 
Q 1875 4231 1450 3742 
Q 1025 3253 1025 2328 
Q 1025 1406 1450 917 
Q 1875 428 2675 428 
Q 3081 428 3442 575 
Q 3803 722 4122 1019 
L 4122 359 
Q 3791 134 3420 21 
Q 3050 -91 2638 -91 
Q 1578 -91 968 557 
Q 359 1206 359 2328 
Q 359 3453 968 4101 
Q 1578 4750 2638 4750 
Q 3056 4750 3426 4639 
Q 3797 4528 4122 4306 
z
" transform="scale(0.015625)"/>
        <path id="DejaVuSans-6f" d="M 1959 3097 
Q 1497 3097 1228 2736 
Q 959 2375 959 1747 
Q 959 1119 1226 758 
Q 1494 397 1959 397 
Q 2419 397 2687 759 
Q 2956 1122 2956 1747 
Q 2956 2369 2687 2733 
Q 2419 3097 1959 3097 
z
M 1959 3584 
Q 2709 3584 3137 3096 
Q 3566 2609 3566 1747 
Q 3566 888 3137 398 
Q 2709 -91 1959 -91 
Q 1206 -91 779 398 
Q 353 888 353 1747 
Q 353 2609 779 3096 
Q 1206 3584 1959 3584 
z
" transform="scale(0.015625)"/>
        <path id="DejaVuSans-64" d="M 2906 2969 
L 2906 4863 
L 3481 4863 
L 3481 0 
L 2906 0 
L 2906 525 
Q 2725 213 2448 61 
Q 2172 -91 1784 -91 
Q 1150 -91 751 415 
Q 353 922 353 1747 
Q 353 2572 751 3078 
Q 1150 3584 1784 3584 
Q 2172 3584 2448 3432 
Q 2725 3281 2906 2969 
z
M 947 1747 
Q 947 1113 1208 752 
Q 1469 391 1925 391 
Q 2381 391 2643 752 
Q 2906 1113 2906 1747 
Q 2906 2381 2643 2742 
Q 2381 3103 1925 3103 
Q 1469 3103 1208 2742 
Q 947 2381 947 1747 
z
" transform="scale(0.015625)"/>
       </defs>
       <use xlink:href="#DejaVuSans-4c"/>
       <use xlink:href="#DejaVuSans-69" transform="translate(55.712891 0)"/>
       <use xlink:href="#DejaVuSans-76" transform="translate(83.496094 0)"/>
       <use xlink:href="#DejaVuSans-65" transform="translate(142.675781 0)"/>
       <use xlink:href="#DejaVuSans-43" transform="translate(204.199219 0)"/>
       <use xlink:href="#DejaVuSans-6f" transform="translate(274.023438 0)"/>
       <use xlink:href="#DejaVuSans-64" transform="translate(335.205078 0)"/>
       <use xlink:href="#DejaVuSans-65" transform="translate(398.681641 0)"/>
       <use xlink:href="#DejaVuSans-42" transform="translate(460.205078 0)"/>
       <use xlink:href="#DejaVuSans-65" transform="translate(528.808594 0)"/>
       <use xlink:href="#DejaVuSans-6e" transform="translate(590.332031 0)"/>
       <use xlink:href="#DejaVuSans-63" transform="translate(653.710938 0)"/>
       <use xlink:href="#DejaVuSans-68" transform="translate(708.691406 0)"/>
      </g>
     </g>
    </g>
    <g id="xtick_4">
     <g id="line2d_5">
      <g>
       <use xlink:href="#m038b6d28ab" x="445.525937" y="372.216603" style="stroke: #000000; stroke-width: 0.8"/>
      </g>
     </g>
     <g id="text_4">
      <!-- HLE -->
      <g transform="translate(426.574328 392.99573) rotate(-20) scale(0.1 -0.1)">
       <defs>
        <path id="DejaVuSans-48" d="M 628 4666 
L 1259 4666 
L 1259 2753 
L 3553 2753 
L 3553 4666 
L 4184 4666 
L 4184 0 
L 3553 0 
L 3553 2222 
L 1259 2222 
L 1259 0 
L 628 0 
L 628 4666 
z
" transform="scale(0.015625)"/>
       </defs>
       <use xlink:href="#DejaVuSans-48"/>
       <use xlink:href="#DejaVuSans-4c" transform="translate(75.195312 0)"/>
       <use xlink:href="#DejaVuSans-45" transform="translate(130.908203 0)"/>
      </g>
     </g>
    </g>
    <g id="xtick_5">
     <g id="line2d_6">
      <g>
       <use xlink:href="#m038b6d28ab" x="558.520343" y="372.216603" style="stroke: #000000; stroke-width: 0.8"/>
      </g>
     </g>
     <g id="text_5">
      <!-- GPQA Diamond -->
      <g transform="translate(485.621567 412.630893) rotate(-20) scale(0.1 -0.1)">
       <defs>
        <path id="DejaVuSans-47" d="M 3809 666 
L 3809 1919 
L 2778 1919 
L 2778 2438 
L 4434 2438 
L 4434 434 
Q 4069 175 3628 42 
Q 3188 -91 2688 -91 
Q 1594 -91 976 548 
Q 359 1188 359 2328 
Q 359 3472 976 4111 
Q 1594 4750 2688 4750 
Q 3144 4750 3555 4637 
Q 3966 4525 4313 4306 
L 4313 3634 
Q 3963 3931 3569 4081 
Q 3175 4231 2741 4231 
Q 1884 4231 1454 3753 
Q 1025 3275 1025 2328 
Q 1025 1384 1454 906 
Q 1884 428 2741 428 
Q 3075 428 3337 486 
Q 3600 544 3809 666 
z
" transform="scale(0.015625)"/>
        <path id="DejaVuSans-50" d="M 1259 4147 
L 1259 2394 
L 2053 2394 
Q 2494 2394 2734 2622 
Q 2975 2850 2975 3272 
Q 2975 3691 2734 3919 
Q 2494 4147 2053 4147 
L 1259 4147 
z
M 628 4666 
L 2053 4666 
Q 2838 4666 3239 4311 
Q 3641 3956 3641 3272 
Q 3641 2581 3239 2228 
Q 2838 1875 2053 1875 
L 1259 1875 
L 1259 0 
L 628 0 
L 628 4666 
z
" transform="scale(0.015625)"/>
        <path id="DejaVuSans-51" d="M 2522 4238 
Q 1834 4238 1429 3725 
Q 1025 3213 1025 2328 
Q 1025 1447 1429 934 
Q 1834 422 2522 422 
Q 3209 422 3611 934 
Q 4013 1447 4013 2328 
Q 4013 3213 3611 3725 
Q 3209 4238 2522 4238 
z
M 3406 84 
L 4238 -825 
L 3475 -825 
L 2784 -78 
Q 2681 -84 2626 -87 
Q 2572 -91 2522 -91 
Q 1538 -91 948 567 
Q 359 1225 359 2328 
Q 359 3434 948 4092 
Q 1538 4750 2522 4750 
Q 3503 4750 4090 4092 
Q 4678 3434 4678 2328 
Q 4678 1516 4351 937 
Q 4025 359 3406 84 
z
" transform="scale(0.015625)"/>
        <path id="DejaVuSans-44" d="M 1259 4147 
L 1259 519 
L 2022 519 
Q 2988 519 3436 956 
Q 3884 1394 3884 2338 
Q 3884 3275 3436 3711 
Q 2988 4147 2022 4147 
L 1259 4147 
z
M 628 4666 
L 1925 4666 
Q 3281 4666 3915 4102 
Q 4550 3538 4550 2338 
Q 4550 1131 3912 565 
Q 3275 0 1925 0 
L 628 0 
L 628 4666 
z
" transform="scale(0.015625)"/>
        <path id="DejaVuSans-61" d="M 2194 1759 
Q 1497 1759 1228 1600 
Q 959 1441 959 1056 
Q 959 750 1161 570 
Q 1363 391 1709 391 
Q 2188 391 2477 730 
Q 2766 1069 2766 1631 
L 2766 1759 
L 2194 1759 
z
M 3341 1997 
L 3341 0 
L 2766 0 
L 2766 531 
Q 2569 213 2275 61 
Q 1981 -91 1556 -91 
Q 1019 -91 701 211 
Q 384 513 384 1019 
Q 384 1609 779 1909 
Q 1175 2209 1959 2209 
L 2766 2209 
L 2766 2266 
Q 2766 2663 2505 2880 
Q 2244 3097 1772 3097 
Q 1472 3097 1187 3025 
Q 903 2953 641 2809 
L 641 3341 
Q 956 3463 1253 3523 
Q 1550 3584 1831 3584 
Q 2591 3584 2966 3190 
Q 3341 2797 3341 1997 
z
" transform="scale(0.015625)"/>
        <path id="DejaVuSans-6d" d="M 3328 2828 
Q 3544 3216 3844 3400 
Q 4144 3584 4550 3584 
Q 5097 3584 5394 3201 
Q 5691 2819 5691 2113 
L 5691 0 
L 5113 0 
L 5113 2094 
Q 5113 2597 4934 2840 
Q 4756 3084 4391 3084 
Q 3944 3084 3684 2787 
Q 3425 2491 3425 1978 
L 3425 0 
L 2847 0 
L 2847 2094 
Q 2847 2600 2669 2842 
Q 2491 3084 2119 3084 
Q 1678 3084 1418 2786 
Q 1159 2488 1159 1978 
L 1159 0 
L 581 0 
L 581 3500 
L 1159 3500 
L 1159 2956 
Q 1356 3278 1631 3431 
Q 1906 3584 2284 3584 
Q 2666 3584 2933 3390 
Q 3200 3197 3328 2828 
z
" transform="scale(0.015625)"/>
       </defs>
       <use xlink:href="#DejaVuSans-47"/>
       <use xlink:href="#DejaVuSans-50" transform="translate(77.490234 0)"/>
       <use xlink:href="#DejaVuSans-51" transform="translate(137.792969 0)"/>
       <use xlink:href="#DejaVuSans-41" transform="translate(216.503906 0)"/>
       <use xlink:href="#DejaVuSans-20" transform="translate(284.912109 0)"/>
       <use xlink:href="#DejaVuSans-44" transform="translate(316.699219 0)"/>
       <use xlink:href="#DejaVuSans-69" transform="translate(393.701172 0)"/>
       <use xlink:href="#DejaVuSans-61" transform="translate(421.484375 0)"/>
       <use xlink:href="#DejaVuSans-6d" transform="translate(482.763672 0)"/>
       <use xlink:href="#DejaVuSans-6f" transform="translate(580.175781 0)"/>
       <use xlink:href="#DejaVuSans-6e" transform="translate(641.357422 0)"/>
       <use xlink:href="#DejaVuSans-64" transform="translate(704.736328 0)"/>
      </g>
     </g>
    </g>
    <g id="xtick_6">
     <g id="line2d_7">
      <g>
       <use xlink:href="#m038b6d28ab" x="671.514749" y="372.216603" style="stroke: #000000; stroke-width: 0.8"/>
      </g>
     </g>
     <g id="text_6">
      <!-- CritPt -->
      <g transform="translate(644.734325 395.845186) rotate(-20) scale(0.1 -0.1)">
       <defs>
        <path id="DejaVuSans-72" d="M 2631 2963 
Q 2534 3019 2420 3045 
Q 2306 3072 2169 3072 
Q 1681 3072 1420 2755 
Q 1159 2438 1159 1844 
L 1159 0 
L 581 0 
L 581 3500 
L 1159 3500 
L 1159 2956 
Q 1341 3275 1631 3429 
Q 1922 3584 2338 3584 
Q 2397 3584 2469 3576 
Q 2541 3569 2628 3553 
L 2631 2963 
z
" transform="scale(0.015625)"/>
        <path id="DejaVuSans-74" d="M 1172 4494 
L 1172 3500 
L 2356 3500 
L 2356 3053 
L 1172 3053 
L 1172 1153 
Q 1172 725 1289 603 
Q 1406 481 1766 481 
L 2356 481 
L 2356 0 
L 1766 0 
Q 1100 0 847 248 
Q 594 497 594 1153 
L 594 3053 
L 172 3053 
L 172 3500 
L 594 3500 
L 594 4494 
L 1172 4494 
z
" transform="scale(0.015625)"/>
       </defs>
       <use xlink:href="#DejaVuSans-43"/>
       <use xlink:href="#DejaVuSans-72" transform="translate(69.824219 0)"/>
       <use xlink:href="#DejaVuSans-69" transform="translate(110.9375 0)"/>
       <use xlink:href="#DejaVuSans-74" transform="translate(138.720703 0)"/>
       <use xlink:href="#DejaVuSans-50" transform="translate(177.929688 0)"/>
       <use xlink:href="#DejaVuSans-74" transform="translate(238.232422 0)"/>
      </g>
     </g>
    </g>
    <g id="xtick_7">
     <g id="line2d_8">
      <g>
       <use xlink:href="#m038b6d28ab" x="784.509154" y="372.216603" style="stroke: #000000; stroke-width: 0.8"/>
      </g>
     </g>
     <g id="text_7">
      <!-- MMLU-Pro -->
      <g transform="translate(737.645737 403.154797) rotate(-20) scale(0.1 -0.1)">
       <defs>
        <path id="DejaVuSans-55" d="M 556 4666 
L 1191 4666 
L 1191 1831 
Q 1191 1081 1462 751 
Q 1734 422 2344 422 
Q 2950 422 3222 751 
Q 3494 1081 3494 1831 
L 3494 4666 
L 4128 4666 
L 4128 1753 
Q 4128 841 3676 375 
Q 3225 -91 2344 -91 
Q 1459 -91 1007 375 
Q 556 841 556 1753 
L 556 4666 
z
" transform="scale(0.015625)"/>
        <path id="DejaVuSans-2d" d="M 313 2009 
L 1997 2009 
L 1997 1497 
L 313 1497 
L 313 2009 
z
" transform="scale(0.015625)"/>
       </defs>
       <use xlink:href="#DejaVuSans-4d"/>
       <use xlink:href="#DejaVuSans-4d" transform="translate(86.279297 0)"/>
       <use xlink:href="#DejaVuSans-4c" transform="translate(172.558594 0)"/>
       <use xlink:href="#DejaVuSans-55" transform="translate(223.271484 0)"/>
       <use xlink:href="#DejaVuSans-2d" transform="translate(296.464844 0)"/>
       <use xlink:href="#DejaVuSans-50" transform="translate(332.548828 0)"/>
       <use xlink:href="#DejaVuSans-72" transform="translate(391.101562 0)"/>
       <use xlink:href="#DejaVuSans-6f" transform="translate(429.964844 0)"/>
      </g>
     </g>
    </g>
   </g>
   <g id="matplotlib.axis_2">
    <g id="ytick_1">
     <g id="line2d_9">
      <defs>
       <path id="m89b012836f" d="M 0 0 
L -3.5 0 
" style="stroke: #000000; stroke-width: 0.8"/>
      </defs>
      <g>
       <use xlink:href="#m89b012836f" x="41.570938" y="348.183667" style="stroke: #000000; stroke-width: 0.8"/>
      </g>
     </g>
     <g id="text_8">
      <!-- 0 -->
      <g transform="translate(28.208438 351.982886) scale(0.1 -0.1)">
       <use xlink:href="#DejaVuSans-30"/>
      </g>
     </g>
    </g>
    <g id="ytick_2">
     <g id="line2d_10">
      <g>
       <use xlink:href="#m89b012836f" x="41.570938" y="300.117795" style="stroke: #000000; stroke-width: 0.8"/>
      </g>
     </g>
     <g id="text_9">
      <!-- 2 -->
      <g transform="translate(28.208438 303.917014) scale(0.1 -0.1)">
       <use xlink:href="#DejaVuSans-32"/>
      </g>
     </g>
    </g>
    <g id="ytick_3">
     <g id="line2d_11">
      <g>
       <use xlink:href="#m89b012836f" x="41.570938" y="252.051923" style="stroke: #000000; stroke-width: 0.8"/>
      </g>
     </g>
     <g id="text_10">
      <!-- 4 -->
      <g transform="translate(28.208438 255.851142) scale(0.1 -0.1)">
       <defs>
        <path id="DejaVuSans-34" d="M 2419 4116 
L 825 1625 
L 2419 1625 
L 2419 4116 
z
M 2253 4666 
L 3047 4666 
L 3047 1625 
L 3713 1625 
L 3713 1100 
L 3047 1100 
L 3047 0 
L 2419 0 
L 2419 1100 
L 313 1100 
L 313 1709 
L 2253 4666 
z
" transform="scale(0.015625)"/>
       </defs>
       <use xlink:href="#DejaVuSans-34"/>
      </g>
     </g>
    </g>
    <g id="ytick_4">
     <g id="line2d_12">
      <g>
       <use xlink:href="#m89b012836f" x="41.570938" y="203.986051" style="stroke: #000000; stroke-width: 0.8"/>
      </g>
     </g>
     <g id="text_11">
      <!-- 6 -->
      <g transform="translate(28.208438 207.78527) scale(0.1 -0.1)">
       <defs>
        <path id="DejaVuSans-36" d="M 2113 2584 
Q 1688 2584 1439 2293 
Q 1191 2003 1191 1497 
Q 1191 994 1439 701 
Q 1688 409 2113 409 
Q 2538 409 2786 701 
Q 3034 994 3034 1497 
Q 3034 2003 2786 2293 
Q 2538 2584 2113 2584 
z
M 3366 4563 
L 3366 3988 
Q 3128 4100 2886 4159 
Q 2644 4219 2406 4219 
Q 1781 4219 1451 3797 
Q 1122 3375 1075 2522 
Q 1259 2794 1537 2939 
Q 1816 3084 2150 3084 
Q 2853 3084 3261 2657 
Q 3669 2231 3669 1497 
Q 3669 778 3244 343 
Q 2819 -91 2113 -91 
Q 1303 -91 875 529 
Q 447 1150 447 2328 
Q 447 3434 972 4092 
Q 1497 4750 2381 4750 
Q 2619 4750 2861 4703 
Q 3103 4656 3366 4563 
z
" transform="scale(0.015625)"/>
       </defs>
       <use xlink:href="#DejaVuSans-36"/>
      </g>
     </g>
    </g>
    <g id="ytick_5">
     <g id="line2d_13">
      <g>
       <use xlink:href="#m89b012836f" x="41.570938" y="155.92018" style="stroke: #000000; stroke-width: 0.8"/>
      </g>
     </g>
     <g id="text_12">
      <!-- 8 -->
      <g transform="translate(28.208438 159.719398) scale(0.1 -0.1)">
       <defs>
        <path id="DejaVuSans-38" d="M 2034 2216 
Q 1584 2216 1326 1975 
Q 1069 1734 1069 1313 
Q 1069 891 1326 650 
Q 1584 409 2034 409 
Q 2484 409 2743 651 
Q 3003 894 3003 1313 
Q 3003 1734 2745 1975 
Q 2488 2216 2034 2216 
z
M 1403 2484 
Q 997 2584 770 2862 
Q 544 3141 544 3541 
Q 544 4100 942 4425 
Q 1341 4750 2034 4750 
Q 2731 4750 3128 4425 
Q 3525 4100 3525 3541 
Q 3525 3141 3298 2862 
Q 3072 2584 2669 2484 
Q 3125 2378 3379 2068 
Q 3634 1759 3634 1313 
Q 3634 634 3220 271 
Q 2806 -91 2034 -91 
Q 1263 -91 848 271 
Q 434 634 434 1313 
Q 434 1759 690 2068 
Q 947 2378 1403 2484 
z
M 1172 3481 
Q 1172 3119 1398 2916 
Q 1625 2713 2034 2713 
Q 2441 2713 2670 2916 
Q 2900 3119 2900 3481 
Q 2900 3844 2670 4047 
Q 2441 4250 2034 4250 
Q 1625 4250 1398 4047 
Q 1172 3844 1172 3481 
z
" transform="scale(0.015625)"/>
       </defs>
       <use xlink:href="#DejaVuSans-38"/>
      </g>
     </g>
    </g>
    <g id="ytick_6">
     <g id="line2d_14">
      <g>
       <use xlink:href="#m89b012836f" x="41.570938" y="107.854308" style="stroke: #000000; stroke-width: 0.8"/>
      </g>
     </g>
     <g id="text_13">
      <!-- 10 -->
      <g transform="translate(21.845938 111.653527) scale(0.1 -0.1)">
       <defs>
        <path id="DejaVuSans-31" d="M 794 531 
L 1825 531 
L 1825 4091 
L 703 3866 
L 703 4441 
L 1819 4666 
L 2450 4666 
L 2450 531 
L 3481 531 
L 3481 0 
L 794 0 
L 794 531 
z
" transform="scale(0.015625)"/>
       </defs>
       <use xlink:href="#DejaVuSans-31"/>
       <use xlink:href="#DejaVuSans-30" transform="translate(63.623047 0)"/>
      </g>
     </g>
    </g>
    <g id="ytick_7">
     <g id="line2d_15">
      <g>
       <use xlink:href="#m89b012836f" x="41.570938" y="59.788436" style="stroke: #000000; stroke-width: 0.8"/>
      </g>
     </g>
     <g id="text_14">
      <!-- 12 -->
      <g transform="translate(21.845938 63.587655) scale(0.1 -0.1)">
       <use xlink:href="#DejaVuSans-31"/>
       <use xlink:href="#DejaVuSans-32" transform="translate(63.623047 0)"/>
      </g>
     </g>
    </g>
    <g id="text_15">
     <!-- Token Economy Score (TES) -->
     <g transform="translate(15.558281 280.223786) rotate(-90) scale(0.11 -0.11)">
      <defs>
       <path id="DejaVuSans-54" d="M -19 4666 
L 3928 4666 
L 3928 4134 
L 2272 4134 
L 2272 0 
L 1638 0 
L 1638 4134 
L -19 4134 
L -19 4666 
z
" transform="scale(0.015625)"/>
       <path id="DejaVuSans-6b" d="M 581 4863 
L 1159 4863 
L 1159 1991 
L 2875 3500 
L 3609 3500 
L 1753 1863 
L 3688 0 
L 2938 0 
L 1159 1709 
L 1159 0 
L 581 0 
L 581 4863 
z
" transform="scale(0.015625)"/>
       <path id="DejaVuSans-79" d="M 2059 -325 
Q 1816 -950 1584 -1140 
Q 1353 -1331 966 -1331 
L 506 -1331 
L 506 -850 
L 844 -850 
Q 1081 -850 1212 -737 
Q 1344 -625 1503 -206 
L 1606 56 
L 191 3500 
L 800 3500 
L 1894 763 
L 2988 3500 
L 3597 3500 
L 2059 -325 
z
" transform="scale(0.015625)"/>
       <path id="DejaVuSans-53" d="M 3425 4513 
L 3425 3897 
Q 3066 4069 2747 4153 
Q 2428 4238 2131 4238 
Q 1616 4238 1336 4038 
Q 1056 3838 1056 3469 
Q 1056 3159 1242 3001 
Q 1428 2844 1947 2747 
L 2328 2669 
Q 3034 2534 3370 2195 
Q 3706 1856 3706 1288 
Q 3706 609 3251 259 
Q 2797 -91 1919 -91 
Q 1588 -91 1214 -16 
Q 841 59 441 206 
L 441 856 
Q 825 641 1194 531 
Q 1563 422 1919 422 
Q 2459 422 2753 634 
Q 3047 847 3047 1241 
Q 3047 1584 2836 1778 
Q 2625 1972 2144 2069 
L 1759 2144 
Q 1053 2284 737 2584 
Q 422 2884 422 3419 
Q 422 4038 858 4394 
Q 1294 4750 2059 4750 
Q 2388 4750 2728 4690 
Q 3069 4631 3425 4513 
z
" transform="scale(0.015625)"/>
       <path id="DejaVuSans-28" d="M 1984 4856 
Q 1566 4138 1362 3434 
Q 1159 2731 1159 2009 
Q 1159 1288 1364 580 
Q 1569 -128 1984 -844 
L 1484 -844 
Q 1016 -109 783 600 
Q 550 1309 550 2009 
Q 550 2706 781 3412 
Q 1013 4119 1484 4856 
L 1984 4856 
z
" transform="scale(0.015625)"/>
       <path id="DejaVuSans-29" d="M 513 4856 
L 1013 4856 
Q 1481 4119 1714 3412 
Q 1947 2706 1947 2009 
Q 1947 1309 1714 600 
Q 1481 -109 1013 -844 
L 513 -844 
Q 928 -128 1133 580 
Q 1338 1288 1338 2009 
Q 1338 2731 1133 3434 
Q 928 4138 513 4856 
z
" transform="scale(0.015625)"/>
      </defs>
      <use xlink:href="#DejaVuSans-54"/>
      <use xlink:href="#DejaVuSans-6f" transform="translate(44.083984 0)"/>
      <use xlink:href="#DejaVuSans-6b" transform="translate(105.265625 0)"/>
      <use xlink:href="#DejaVuSans-65" transform="translate(159.550781 0)"/>
      <use xlink:href="#DejaVuSans-6e" transform="translate(221.074219 0)"/>
      <use xlink:href="#DejaVuSans-20" transform="translate(284.453125 0)"/>
      <use xlink:href="#DejaVuSans-45" transform="translate(316.240234 0)"/>
      <use xlink:href="#DejaVuSans-63" transform="translate(379.423828 0)"/>
      <use xlink:href="#DejaVuSans-6f" transform="translate(434.404297 0)"/>
      <use xlink:href="#DejaVuSans-6e" transform="translate(495.585938 0)"/>
      <use xlink:href="#DejaVuSans-6f" transform="translate(558.964844 0)"/>
      <use xlink:href="#DejaVuSans-6d" transform="translate(620.146484 0)"/>
      <use xlink:href="#DejaVuSans-79" transform="translate(717.558594 0)"/>
      <use xlink:href="#DejaVuSans-20" transform="translate(776.738281 0)"/>
      <use xlink:href="#DejaVuSans-53" transform="translate(808.525391 0)"/>
      <use xlink:href="#DejaVuSans-63" transform="translate(872.001953 0)"/>
      <use xlink:href="#DejaVuSans-6f" transform="translate(926.982422 0)"/>
      <use xlink:href="#DejaVuSans-72" transform="translate(988.164062 0)"/>
      <use xlink:href="#DejaVuSans-65" transform="translate(1027.027344 0)"/>
      <use xlink:href="#DejaVuSans-20" transform="translate(1088.550781 0)"/>
      <use xlink:href="#DejaVuSans-28" transform="translate(1120.337891 0)"/>
      <use xlink:href="#DejaVuSans-54" transform="translate(1159.351562 0)"/>
      <use xlink:href="#DejaVuSans-45" transform="translate(1220.435547 0)"/>
      <use xlink:href="#DejaVuSans-53" transform="translate(1283.619141 0)"/>
      <use xlink:href="#DejaVuSans-29" transform="translate(1347.095703 0)"/>
     </g>
    </g>
   </g>
   <g id="patch_5">
    <path d="M 78.294119 348.183667 
L 134.791322 348.183667 
L 134.791322 197.376994 
L 78.294119 197.376994 
z
" clip-path="url(#p78778b014c)" style="fill: #2563eb; opacity: 0.75"/>
   </g>
   <g id="patch_6">
    <path d="M 191.288525 348.183667 
L 247.785728 348.183667 
L 247.785728 282.958279 
L 191.288525 282.958279 
z
" clip-path="url(#p78778b014c)" style="fill: #9333ea; opacity: 0.75"/>
   </g>
   <g id="patch_7">
    <path d="M 304.282931 348.183667 
L 360.780133 348.183667 
L 360.780133 286.394989 
L 304.282931 286.394989 
z
" clip-path="url(#p78778b014c)" style="fill: #16a34a; opacity: 0.75"/>
   </g>
   <g id="patch_8">
    <path d="M 417.277336 348.183667 
L 473.774539 348.183667 
L 473.774539 321.314845 
L 417.277336 321.314845 
z
" clip-path="url(#p78778b014c)" style="fill: #d97706; opacity: 0.75"/>
   </g>
   <g id="patch_9">
    <path d="M 530.271742 348.183667 
L 586.768944 348.183667 
L 586.768944 332.009501 
L 530.271742 332.009501 
z
" clip-path="url(#p78778b014c)" style="fill: #dc2626; opacity: 0.75"/>
   </g>
   <g id="patch_10">
    <path d="M 643.266147 348.183667 
L 699.76335 348.183667 
L 699.76335 333.595675 
L 643.266147 333.595675 
z
" clip-path="url(#p78778b014c)" style="fill: #0891b2; opacity: 0.75"/>
   </g>
   <g id="patch_11">
    <path d="M 756.260553 348.183667 
L 812.757756 348.183667 
L 812.757756 332.610325 
L 756.260553 332.610325 
z
" clip-path="url(#p78778b014c)" style="fill: #6b7280; opacity: 0.75"/>
   </g>
   <g id="patch_12">
    <path d="M 41.570938 372.216603 
L 41.570938 35.7555 
" style="fill: none; stroke: #000000; stroke-width: 0.8; stroke-linejoin: miter; stroke-linecap: square"/>
   </g>
   <g id="patch_13">
    <path d="M 849.480937 372.216603 
L 849.480937 35.7555 
" style="fill: none; stroke: #000000; stroke-width: 0.8; stroke-linejoin: miter; stroke-linecap: square"/>
   </g>
   <g id="patch_14">
    <path d="M 41.570937 372.216603 
L 849.480937 372.216603 
" style="fill: none; stroke: #000000; stroke-width: 0.8; stroke-linejoin: miter; stroke-linecap: square"/>
   </g>
   <g id="patch_15">
    <path d="M 41.570937 35.7555 
L 849.480937 35.7555 
" style="fill: none; stroke: #000000; stroke-width: 0.8; stroke-linejoin: miter; stroke-linecap: square"/>
   </g>
   <g id="LineCollection_1">
    <path d="M 106.542721 263.924194 
L 106.542721 130.829795 
" clip-path="url(#p78778b014c)" style="fill: none; stroke: #000000; stroke-width: 1.5"/>
   </g>
   <g id="line2d_16">
    <defs>
     <path id="m8442dc9240" d="M 5 0 
L -5 -0 
" style="stroke: #000000"/>
    </defs>
    <g clip-path="url(#p78778b014c)">
     <use xlink:href="#m8442dc9240" x="106.542721" y="263.924194" style="stroke: #000000"/>
    </g>
   </g>
   <g id="line2d_17">
    <g clip-path="url(#p78778b014c)">
     <use xlink:href="#m8442dc9240" x="106.542721" y="130.829795" style="stroke: #000000"/>
    </g>
   </g>
   <g id="LineCollection_2">
    <path d="M 219.537126 331.600941 
L 219.537126 234.315617 
" clip-path="url(#p78778b014c)" style="fill: none; stroke: #000000; stroke-width: 1.5"/>
   </g>
   <g id="line2d_18">
    <g clip-path="url(#p78778b014c)">
     <use xlink:href="#m8442dc9240" x="219.537126" y="331.600941" style="stroke: #000000"/>
    </g>
   </g>
   <g id="line2d_19">
    <g clip-path="url(#p78778b014c)">
     <use xlink:href="#m8442dc9240" x="219.537126" y="234.315617" style="stroke: #000000"/>
    </g>
   </g>
   <g id="LineCollection_3">
    <path d="M 332.531532 318.406859 
L 332.531532 254.383118 
" clip-path="url(#p78778b014c)" style="fill: none; stroke: #000000; stroke-width: 1.5"/>
   </g>
   <g id="line2d_20">
    <g clip-path="url(#p78778b014c)">
     <use xlink:href="#m8442dc9240" x="332.531532" y="318.406859" style="stroke: #000000"/>
    </g>
   </g>
   <g id="line2d_21">
    <g clip-path="url(#p78778b014c)">
     <use xlink:href="#m8442dc9240" x="332.531532" y="254.383118" style="stroke: #000000"/>
    </g>
   </g>
   <g id="LineCollection_4">
    <path d="M 445.525937 334.821355 
L 445.525937 307.808335 
" clip-path="url(#p78778b014c)" style="fill: none; stroke: #000000; stroke-width: 1.5"/>
   </g>
   <g id="line2d_22">
    <g clip-path="url(#p78778b014c)">
     <use xlink:href="#m8442dc9240" x="445.525937" y="334.821355" style="stroke: #000000"/>
    </g>
   </g>
   <g id="line2d_23">
    <g clip-path="url(#p78778b014c)">
     <use xlink:href="#m8442dc9240" x="445.525937" y="307.808335" style="stroke: #000000"/>
    </g>
   </g>
   <g id="LineCollection_5">
    <path d="M 558.520343 341.550577 
L 558.520343 322.468426 
" clip-path="url(#p78778b014c)" style="fill: none; stroke: #000000; stroke-width: 1.5"/>
   </g>
   <g id="line2d_24">
    <g clip-path="url(#p78778b014c)">
     <use xlink:href="#m8442dc9240" x="558.520343" y="341.550577" style="stroke: #000000"/>
    </g>
   </g>
   <g id="line2d_25">
    <g clip-path="url(#p78778b014c)">
     <use xlink:href="#m8442dc9240" x="558.520343" y="322.468426" style="stroke: #000000"/>
    </g>
   </g>
   <g id="LineCollection_6">
    <path d="M 671.514749 347.102185 
L 671.514749 320.089165 
" clip-path="url(#p78778b014c)" style="fill: none; stroke: #000000; stroke-width: 1.5"/>
   </g>
   <g id="line2d_26">
    <g clip-path="url(#p78778b014c)">
     <use xlink:href="#m8442dc9240" x="671.514749" y="347.102185" style="stroke: #000000"/>
    </g>
   </g>
   <g id="line2d_27">
    <g clip-path="url(#p78778b014c)">
     <use xlink:href="#m8442dc9240" x="671.514749" y="320.089165" style="stroke: #000000"/>
    </g>
   </g>
   <g id="LineCollection_7">
    <path d="M 784.509154 345.948604 
L 784.509154 319.272045 
" clip-path="url(#p78778b014c)" style="fill: none; stroke: #000000; stroke-width: 1.5"/>
   </g>
   <g id="line2d_28">
    <g clip-path="url(#p78778b014c)">
     <use xlink:href="#m8442dc9240" x="784.509154" y="345.948604" style="stroke: #000000"/>
    </g>
   </g>
   <g id="line2d_29">
    <g clip-path="url(#p78778b014c)">
     <use xlink:href="#m8442dc9240" x="784.509154" y="319.272045" style="stroke: #000000"/>
    </g>
   </g>
   <g id="patch_16">
    <path d="M 328.581068 143.050925 
Q 275.032466 155.271647 222.573873 167.243609 
" style="fill: none; stroke: #808080; stroke-linecap: round"/>
    <path d="M 226.049655 168.091513 
L 222.573873 167.243609 
L 225.337665 164.971726 
" style="fill: none; stroke: #808080; stroke-linecap: round"/>
   </g>
   <g id="text_16">
    <!-- Grok 4.20 -->
    <g style="fill: #808080" transform="translate(332.531532 125.987212) scale(0.08 -0.08)">
     <defs>
      <path id="DejaVuSans-2e" d="M 684 794 
L 1344 794 
L 1344 0 
L 684 0 
L 684 794 
z
" transform="scale(0.015625)"/>
     </defs>
     <use xlink:href="#DejaVuSans-47"/>
     <use xlink:href="#DejaVuSans-72" transform="translate(77.490234 0)"/>
     <use xlink:href="#DejaVuSans-6f" transform="translate(116.353516 0)"/>
     <use xlink:href="#DejaVuSans-6b" transform="translate(177.535156 0)"/>
     <use xlink:href="#DejaVuSans-20" transform="translate(235.445312 0)"/>
     <use xlink:href="#DejaVuSans-34" transform="translate(267.232422 0)"/>
     <use xlink:href="#DejaVuSans-2e" transform="translate(330.855469 0)"/>
     <use xlink:href="#DejaVuSans-32" transform="translate(362.642578 0)"/>
     <use xlink:href="#DejaVuSans-30" transform="translate(426.265625 0)"/>
    </g>
    <!-- (TES=30.0, outlier -->
    <g style="fill: #808080" transform="translate(332.531532 134.945462) scale(0.08 -0.08)">
     <defs>
      <path id="DejaVuSans-3d" d="M 678 2906 
L 4684 2906 
L 4684 2381 
L 678 2381 
L 678 2906 
z
M 678 1631 
L 4684 1631 
L 4684 1100 
L 678 1100 
L 678 1631 
z
" transform="scale(0.015625)"/>
      <path id="DejaVuSans-33" d="M 2597 2516 
Q 3050 2419 3304 2112 
Q 3559 1806 3559 1356 
Q 3559 666 3084 287 
Q 2609 -91 1734 -91 
Q 1441 -91 1130 -33 
Q 819 25 488 141 
L 488 750 
Q 750 597 1062 519 
Q 1375 441 1716 441 
Q 2309 441 2620 675 
Q 2931 909 2931 1356 
Q 2931 1769 2642 2001 
Q 2353 2234 1838 2234 
L 1294 2234 
L 1294 2753 
L 1863 2753 
Q 2328 2753 2575 2939 
Q 2822 3125 2822 3475 
Q 2822 3834 2567 4026 
Q 2313 4219 1838 4219 
Q 1578 4219 1281 4162 
Q 984 4106 628 3988 
L 628 4550 
Q 988 4650 1302 4700 
Q 1616 4750 1894 4750 
Q 2613 4750 3031 4423 
Q 3450 4097 3450 3541 
Q 3450 3153 3228 2886 
Q 3006 2619 2597 2516 
z
" transform="scale(0.015625)"/>
      <path id="DejaVuSans-2c" d="M 750 794 
L 1409 794 
L 1409 256 
L 897 -744 
L 494 -744 
L 750 256 
L 750 794 
z
" transform="scale(0.015625)"/>
      <path id="DejaVuSans-75" d="M 544 1381 
L 544 3500 
L 1119 3500 
L 1119 1403 
Q 1119 906 1312 657 
Q 1506 409 1894 409 
Q 2359 409 2629 706 
Q 2900 1003 2900 1516 
L 2900 3500 
L 3475 3500 
L 3475 0 
L 2900 0 
L 2900 538 
Q 2691 219 2414 64 
Q 2138 -91 1772 -91 
Q 1169 -91 856 284 
Q 544 659 544 1381 
z
M 1991 3584 
L 1991 3584 
z
" transform="scale(0.015625)"/>
      <path id="DejaVuSans-6c" d="M 603 4863 
L 1178 4863 
L 1178 0 
L 603 0 
L 603 4863 
z
" transform="scale(0.015625)"/>
     </defs>
     <use xlink:href="#DejaVuSans-28"/>
     <use xlink:href="#DejaVuSans-54" transform="translate(39.013672 0)"/>
     <use xlink:href="#DejaVuSans-45" transform="translate(100.097656 0)"/>
     <use xlink:href="#DejaVuSans-53" transform="translate(163.28125 0)"/>
     <use xlink:href="#DejaVuSans-3d" transform="translate(226.757812 0)"/>
     <use xlink:href="#DejaVuSans-33" transform="translate(310.546875 0)"/>
     <use xlink:href="#DejaVuSans-30" transform="translate(374.169922 0)"/>
     <use xlink:href="#DejaVuSans-2e" transform="translate(437.792969 0)"/>
     <use xlink:href="#DejaVuSans-30" transform="translate(469.580078 0)"/>
     <use xlink:href="#DejaVuSans-2c" transform="translate(533.203125 0)"/>
     <use xlink:href="#DejaVuSans-20" transform="translate(564.990234 0)"/>
     <use xlink:href="#DejaVuSans-6f" transform="translate(596.777344 0)"/>
     <use xlink:href="#DejaVuSans-75" transform="translate(657.958984 0)"/>
     <use xlink:href="#DejaVuSans-74" transform="translate(721.337891 0)"/>
     <use xlink:href="#DejaVuSans-6c" transform="translate(760.546875 0)"/>
     <use xlink:href="#DejaVuSans-69" transform="translate(788.330078 0)"/>
     <use xlink:href="#DejaVuSans-65" transform="translate(816.113281 0)"/>
     <use xlink:href="#DejaVuSans-72" transform="translate(877.636719 0)"/>
    </g>
    <!-- excluded from stats) -->
    <g style="fill: #808080" transform="translate(332.531532 143.903712) scale(0.08 -0.08)">
     <defs>
      <path id="DejaVuSans-78" d="M 3513 3500 
L 2247 1797 
L 3578 0 
L 2900 0 
L 1881 1375 
L 863 0 
L 184 0 
L 1544 1831 
L 300 3500 
L 978 3500 
L 1906 2253 
L 2834 3500 
L 3513 3500 
z
" transform="scale(0.015625)"/>
      <path id="DejaVuSans-66" d="M 2375 4863 
L 2375 4384 
L 1825 4384 
Q 1516 4384 1395 4259 
Q 1275 4134 1275 3809 
L 1275 3500 
L 2222 3500 
L 2222 3053 
L 1275 3053 
L 1275 0 
L 697 0 
L 697 3053 
L 147 3053 
L 147 3500 
L 697 3500 
L 697 3744 
Q 697 4328 969 4595 
Q 1241 4863 1831 4863 
L 2375 4863 
z
" transform="scale(0.015625)"/>
      <path id="DejaVuSans-73" d="M 2834 3397 
L 2834 2853 
Q 2591 2978 2328 3040 
Q 2066 3103 1784 3103 
Q 1356 3103 1142 2972 
Q 928 2841 928 2578 
Q 928 2378 1081 2264 
Q 1234 2150 1697 2047 
L 1894 2003 
Q 2506 1872 2764 1633 
Q 3022 1394 3022 966 
Q 3022 478 2636 193 
Q 2250 -91 1575 -91 
Q 1294 -91 989 -36 
Q 684 19 347 128 
L 347 722 
Q 666 556 975 473 
Q 1284 391 1588 391 
Q 1994 391 2212 530 
Q 2431 669 2431 922 
Q 2431 1156 2273 1281 
Q 2116 1406 1581 1522 
L 1381 1569 
Q 847 1681 609 1914 
Q 372 2147 372 2553 
Q 372 3047 722 3315 
Q 1072 3584 1716 3584 
Q 2034 3584 2315 3537 
Q 2597 3491 2834 3397 
z
" transform="scale(0.015625)"/>
     </defs>
     <use xlink:href="#DejaVuSans-65"/>
     <use xlink:href="#DejaVuSans-78" transform="translate(59.773438 0)"/>
     <use xlink:href="#DejaVuSans-63" transform="translate(117.203125 0)"/>
     <use xlink:href="#DejaVuSans-6c" transform="translate(172.183594 0)"/>
     <use xlink:href="#DejaVuSans-75" transform="translate(199.966797 0)"/>
     <use xlink:href="#DejaVuSans-64" transform="translate(263.345703 0)"/>
     <use xlink:href="#DejaVuSans-65" transform="translate(326.822266 0)"/>
     <use xlink:href="#DejaVuSans-64" transform="translate(388.345703 0)"/>
     <use xlink:href="#DejaVuSans-20" transform="translate(451.822266 0)"/>
     <use xlink:href="#DejaVuSans-66" transform="translate(483.609375 0)"/>
     <use xlink:href="#DejaVuSans-72" transform="translate(518.814453 0)"/>
     <use xlink:href="#DejaVuSans-6f" transform="translate(557.677734 0)"/>
     <use xlink:href="#DejaVuSans-6d" transform="translate(618.859375 0)"/>
     <use xlink:href="#DejaVuSans-20" transform="translate(716.271484 0)"/>
     <use xlink:href="#DejaVuSans-73" transform="translate(748.058594 0)"/>
     <use xlink:href="#DejaVuSans-74" transform="translate(800.158203 0)"/>
     <use xlink:href="#DejaVuSans-61" transform="translate(839.367188 0)"/>
     <use xlink:href="#DejaVuSans-74" transform="translate(900.646484 0)"/>
     <use xlink:href="#DejaVuSans-73" transform="translate(939.855469 0)"/>
     <use xlink:href="#DejaVuSans-29" transform="translate(991.955078 0)"/>
    </g>
   </g>
   <g id="text_17">
    <!-- Figure 2 — TES Distribution Across Benchmarks -->
    <g transform="translate(302.829062 16.318125) scale(0.12 -0.12)">
     <defs>
      <path id="DejaVuSans-67" d="M 2906 1791 
Q 2906 2416 2648 2759 
Q 2391 3103 1925 3103 
Q 1463 3103 1205 2759 
Q 947 2416 947 1791 
Q 947 1169 1205 825 
Q 1463 481 1925 481 
Q 2391 481 2648 825 
Q 2906 1169 2906 1791 
z
M 3481 434 
Q 3481 -459 3084 -895 
Q 2688 -1331 1869 -1331 
Q 1566 -1331 1297 -1286 
Q 1028 -1241 775 -1147 
L 775 -588 
Q 1028 -725 1275 -790 
Q 1522 -856 1778 -856 
Q 2344 -856 2625 -561 
Q 2906 -266 2906 331 
L 2906 616 
Q 2728 306 2450 153 
Q 2172 0 1784 0 
Q 1141 0 747 490 
Q 353 981 353 1791 
Q 353 2603 747 3093 
Q 1141 3584 1784 3584 
Q 2172 3584 2450 3431 
Q 2728 3278 2906 2969 
L 2906 3500 
L 3481 3500 
L 3481 434 
z
" transform="scale(0.015625)"/>
      <path id="DejaVuSans-2014" d="M 313 1978 
L 6088 1978 
L 6088 1528 
L 313 1528 
L 313 1978 
z
" transform="scale(0.015625)"/>
      <path id="DejaVuSans-62" d="M 3116 1747 
Q 3116 2381 2855 2742 
Q 2594 3103 2138 3103 
Q 1681 3103 1420 2742 
Q 1159 2381 1159 1747 
Q 1159 1113 1420 752 
Q 1681 391 2138 391 
Q 2594 391 2855 752 
Q 3116 1113 3116 1747 
z
M 1159 2969 
Q 1341 3281 1617 3432 
Q 1894 3584 2278 3584 
Q 2916 3584 3314 3078 
Q 3713 2572 3713 1747 
Q 3713 922 3314 415 
Q 2916 -91 2278 -91 
Q 1894 -91 1617 61 
Q 1341 213 1159 525 
L 1159 0 
L 581 0 
L 581 4863 
L 1159 4863 
L 1159 2969 
z
" transform="scale(0.015625)"/>
     </defs>
     <use xlink:href="#DejaVuSans-46"/>
     <use xlink:href="#DejaVuSans-69" transform="translate(50.269531 0)"/>
     <use xlink:href="#DejaVuSans-67" transform="translate(78.052734 0)"/>
     <use xlink:href="#DejaVuSans-75" transform="translate(141.529297 0)"/>
     <use xlink:href="#DejaVuSans-72" transform="translate(204.908203 0)"/>
     <use xlink:href="#DejaVuSans-65" transform="translate(243.771484 0)"/>
     <use xlink:href="#DejaVuSans-20" transform="translate(305.294922 0)"/>
     <use xlink:href="#DejaVuSans-32" transform="translate(337.082031 0)"/>
     <use xlink:href="#DejaVuSans-20" transform="translate(400.705078 0)"/>
     <use xlink:href="#DejaVuSans-2014" transform="translate(432.492188 0)"/>
     <use xlink:href="#DejaVuSans-20" transform="translate(532.492188 0)"/>
     <use xlink:href="#DejaVuSans-54" transform="translate(564.279297 0)"/>
     <use xlink:href="#DejaVuSans-45" transform="translate(625.363281 0)"/>
     <use xlink:href="#DejaVuSans-53" transform="translate(688.546875 0)"/>
     <use xlink:href="#DejaVuSans-20" transform="translate(752.023438 0)"/>
     <use xlink:href="#DejaVuSans-44" transform="translate(783.810547 0)"/>
     <use xlink:href="#DejaVuSans-69" transform="translate(860.8125 0)"/>
     <use xlink:href="#DejaVuSans-73" transform="translate(888.595703 0)"/>
     <use xlink:href="#DejaVuSans-74" transform="translate(940.695312 0)"/>
     <use xlink:href="#DejaVuSans-72" transform="translate(979.904297 0)"/>
     <use xlink:href="#DejaVuSans-69" transform="translate(1021.017578 0)"/>
     <use xlink:href="#DejaVuSans-62" transform="translate(1048.800781 0)"/>
     <use xlink:href="#DejaVuSans-75" transform="translate(1112.277344 0)"/>
     <use xlink:href="#DejaVuSans-74" transform="translate(1175.65625 0)"/>
     <use xlink:href="#DejaVuSans-69" transform="translate(1214.865234 0)"/>
     <use xlink:href="#DejaVuSans-6f" transform="translate(1242.648438 0)"/>
     <use xlink:href="#DejaVuSans-6e" transform="translate(1303.830078 0)"/>
     <use xlink:href="#DejaVuSans-20" transform="translate(1367.208984 0)"/>
     <use xlink:href="#DejaVuSans-41" transform="translate(1398.996094 0)"/>
     <use xlink:href="#DejaVuSans-63" transform="translate(1465.654297 0)"/>
     <use xlink:href="#DejaVuSans-72" transform="translate(1520.634766 0)"/>
     <use xlink:href="#DejaVuSans-6f" transform="translate(1559.498047 0)"/>
     <use xlink:href="#DejaVuSans-73" transform="translate(1620.679688 0)"/>
     <use xlink:href="#DejaVuSans-73" transform="translate(1672.779297 0)"/>
     <use xlink:href="#DejaVuSans-20" transform="translate(1724.878906 0)"/>
     <use xlink:href="#DejaVuSans-42" transform="translate(1756.666016 0)"/>
     <use xlink:href="#DejaVuSans-65" transform="translate(1825.269531 0)"/>
     <use xlink:href="#DejaVuSans-6e" transform="translate(1886.792969 0)"/>
     <use xlink:href="#DejaVuSans-63" transform="translate(1950.171875 0)"/>
     <use xlink:href="#DejaVuSans-68" transform="translate(2005.152344 0)"/>
     <use xlink:href="#DejaVuSans-6d" transform="translate(2068.53125 0)"/>
     <use xlink:href="#DejaVuSans-61" transform="translate(2165.943359 0)"/>
     <use xlink:href="#DejaVuSans-72" transform="translate(2227.222656 0)"/>
     <use xlink:href="#DejaVuSans-6b" transform="translate(2268.335938 0)"/>
     <use xlink:href="#DejaVuSans-73" transform="translate(2326.246094 0)"/>
    </g>
    <!-- (bars = mean ± std; points = individual model pairs) -->
    <g transform="translate(286.222188 29.7555) scale(0.12 -0.12)">
     <defs>
      <path id="DejaVuSans-b1" d="M 2944 4013 
L 2944 2803 
L 4684 2803 
L 4684 2272 
L 2944 2272 
L 2944 1063 
L 2419 1063 
L 2419 2272 
L 678 2272 
L 678 2803 
L 2419 2803 
L 2419 4013 
L 2944 4013 
z
M 678 531 
L 4684 531 
L 4684 0 
L 678 0 
L 678 531 
z
" transform="scale(0.015625)"/>
      <path id="DejaVuSans-3b" d="M 750 3309 
L 1409 3309 
L 1409 2516 
L 750 2516 
L 750 3309 
z
M 750 794 
L 1409 794 
L 1409 256 
L 897 -744 
L 494 -744 
L 750 256 
L 750 794 
z
" transform="scale(0.015625)"/>
      <path id="DejaVuSans-70" d="M 1159 525 
L 1159 -1331 
L 581 -1331 
L 581 3500 
L 1159 3500 
L 1159 2969 
Q 1341 3281 1617 3432 
Q 1894 3584 2278 3584 
Q 2916 3584 3314 3078 
Q 3713 2572 3713 1747 
Q 3713 922 3314 415 
Q 2916 -91 2278 -91 
Q 1894 -91 1617 61 
Q 1341 213 1159 525 
z
M 3116 1747 
Q 3116 2381 2855 2742 
Q 2594 3103 2138 3103 
Q 1681 3103 1420 2742 
Q 1159 2381 1159 1747 
Q 1159 1113 1420 752 
Q 1681 391 2138 391 
Q 2594 391 2855 752 
Q 3116 1113 3116 1747 
z
" transform="scale(0.015625)"/>
     </defs>
     <use xlink:href="#DejaVuSans-28"/>
     <use xlink:href="#DejaVuSans-62" transform="translate(39.013672 0)"/>
     <use xlink:href="#DejaVuSans-61" transform="translate(102.490234 0)"/>
     <use xlink:href="#DejaVuSans-72" transform="translate(163.769531 0)"/>
     <use xlink:href="#DejaVuSans-73" transform="translate(204.882812 0)"/>
     <use xlink:href="#DejaVuSans-20" transform="translate(256.982422 0)"/>
     <use xlink:href="#DejaVuSans-3d" transform="translate(288.769531 0)"/>
     <use xlink:href="#DejaVuSans-20" transform="translate(372.558594 0)"/>
     <use xlink:href="#DejaVuSans-6d" transform="translate(404.345703 0)"/>
     <use xlink:href="#DejaVuSans-65" transform="translate(501.757812 0)"/>
     <use xlink:href="#DejaVuSans-61" transform="translate(563.28125 0)"/>
     <use xlink:href="#DejaVuSans-6e" transform="translate(624.560547 0)"/>
     <use xlink:href="#DejaVuSans-20" transform="translate(687.939453 0)"/>
     <use xlink:href="#DejaVuSans-b1" transform="translate(719.726562 0)"/>
     <use xlink:href="#DejaVuSans-20" transform="translate(803.515625 0)"/>
     <use xlink:href="#DejaVuSans-73" transform="translate(835.302734 0)"/>
     <use xlink:href="#DejaVuSans-74" transform="translate(887.402344 0)"/>
     <use xlink:href="#DejaVuSans-64" transform="translate(926.611328 0)"/>
     <use xlink:href="#DejaVuSans-3b" transform="translate(990.087891 0)"/>
     <use xlink:href="#DejaVuSans-20" transform="translate(1023.779297 0)"/>
     <use xlink:href="#DejaVuSans-70" transform="translate(1055.566406 0)"/>
     <use xlink:href="#DejaVuSans-6f" transform="translate(1119.042969 0)"/>
     <use xlink:href="#DejaVuSans-69" transform="translate(1180.224609 0)"/>
     <use xlink:href="#DejaVuSans-6e" transform="translate(1208.007812 0)"/>
     <use xlink:href="#DejaVuSans-74" transform="translate(1271.386719 0)"/>
     <use xlink:href="#DejaVuSans-73" transform="translate(1310.595703 0)"/>
     <use xlink:href="#DejaVuSans-20" transform="translate(1362.695312 0)"/>
     <use xlink:href="#DejaVuSans-3d" transform="translate(1394.482422 0)"/>
     <use xlink:href="#DejaVuSans-20" transform="translate(1478.271484 0)"/>
     <use xlink:href="#DejaVuSans-69" transform="translate(1510.058594 0)"/>
     <use xlink:href="#DejaVuSans-6e" transform="translate(1537.841797 0)"/>
     <use xlink:href="#DejaVuSans-64" transform="translate(1601.220703 0)"/>
     <use xlink:href="#DejaVuSans-69" transform="translate(1664.697266 0)"/>
     <use xlink:href="#DejaVuSans-76" transform="translate(1692.480469 0)"/>
     <use xlink:href="#DejaVuSans-69" transform="translate(1751.660156 0)"/>
     <use xlink:href="#DejaVuSans-64" transform="translate(1779.443359 0)"/>
     <use xlink:href="#DejaVuSans-75" transform="translate(1842.919922 0)"/>
     <use xlink:href="#DejaVuSans-61" transform="translate(1906.298828 0)"/>
     <use xlink:href="#DejaVuSans-6c" transform="translate(1967.578125 0)"/>
     <use xlink:href="#DejaVuSans-20" transform="translate(1995.361328 0)"/>
     <use xlink:href="#DejaVuSans-6d" transform="translate(2027.148438 0)"/>
     <use xlink:href="#DejaVuSans-6f" transform="translate(2124.560547 0)"/>
     <use xlink:href="#DejaVuSans-64" transform="translate(2185.742188 0)"/>
     <use xlink:href="#DejaVuSans-65" transform="translate(2249.21875 0)"/>
     <use xlink:href="#DejaVuSans-6c" transform="translate(2310.742188 0)"/>
     <use xlink:href="#DejaVuSans-20" transform="translate(2338.525391 0)"/>
     <use xlink:href="#DejaVuSans-70" transform="translate(2370.3125 0)"/>
     <use xlink:href="#DejaVuSans-61" transform="translate(2433.789062 0)"/>
     <use xlink:href="#DejaVuSans-69" transform="translate(2495.068359 0)"/>
     <use xlink:href="#DejaVuSans-72" transform="translate(2522.851562 0)"/>
     <use xlink:href="#DejaVuSans-73" transform="translate(2563.964844 0)"/>
     <use xlink:href="#DejaVuSans-29" transform="translate(2616.064453 0)"/>
    </g>
   </g>
   <g id="PathCollection_1">
    <defs>
     <path id="m0f83f1a2bd" d="M 0 3.162278 
C 0.838646 3.162278 1.643056 2.82908 2.236068 2.236068 
C 2.82908 1.643056 3.162278 0.838646 3.162278 0 
C 3.162278 -0.838646 2.82908 -1.643056 2.236068 -2.236068 
C 1.643056 -2.82908 0.838646 -3.162278 0 -3.162278 
C -0.838646 -3.162278 -1.643056 -2.82908 -2.236068 -2.236068 
C -2.82908 -1.643056 -3.162278 -0.838646 -3.162278 0 
C -3.162278 0.838646 -2.82908 1.643056 -2.236068 2.236068 
C -1.643056 2.82908 -0.838646 3.162278 0 3.162278 
z
" style="stroke: #ffffff; stroke-width: 0.5"/>
    </defs>
    <g clip-path="url(#p78778b014c)">
     <use xlink:href="#m0f83f1a2bd" x="117.377146" y="207.456407" style="fill: #2563eb; stroke: #ffffff; stroke-width: 0.5"/>
     <use xlink:href="#m0f83f1a2bd" x="104.125483" y="260.437015" style="fill: #2563eb; stroke: #ffffff; stroke-width: 0.5"/>
     <use xlink:href="#m0f83f1a2bd" x="120.724566" y="160.570553" style="fill: #2563eb; stroke: #ffffff; stroke-width: 0.5"/>
     <use xlink:href="#m0f83f1a2bd" x="114.34824" y="283.801835" style="fill: #2563eb; stroke: #ffffff; stroke-width: 0.5"/>
     <use xlink:href="#m0f83f1a2bd" x="90.493229" y="68.130268" style="fill: #2563eb; stroke: #ffffff; stroke-width: 0.5"/>
     <use xlink:href="#m0f83f1a2bd" x="125.352653" y="257.877507" style="fill: #2563eb; stroke: #ffffff; stroke-width: 0.5"/>
     <use xlink:href="#m0f83f1a2bd" x="116.870285" y="154.732953" style="fill: #2563eb; stroke: #ffffff; stroke-width: 0.5"/>
     <use xlink:href="#m0f83f1a2bd" x="117.856004" y="203.68564" style="fill: #2563eb; stroke: #ffffff; stroke-width: 0.5"/>
     <use xlink:href="#m0f83f1a2bd" x="91.835343" y="179.712786" style="fill: #2563eb; stroke: #ffffff; stroke-width: 0.5"/>
    </g>
   </g>
   <g id="PathCollection_2">
    <defs>
     <path id="m5ce8db4f1a" d="M 0 3.162278 
C 0.838646 3.162278 1.643056 2.82908 2.236068 2.236068 
C 2.82908 1.643056 3.162278 0.838646 3.162278 0 
C 3.162278 -0.838646 2.82908 -1.643056 2.236068 -2.236068 
C 1.643056 -2.82908 0.838646 -3.162278 0 -3.162278 
C -0.838646 -3.162278 -1.643056 -2.82908 -2.236068 -2.236068 
C -2.82908 -1.643056 -3.162278 -0.838646 -3.162278 0 
C -3.162278 0.838646 -2.82908 1.643056 -2.236068 2.236068 
C -1.643056 2.82908 -0.838646 3.162278 0 3.162278 
z
" style="stroke: #ffffff; stroke-width: 0.5"/>
    </defs>
    <g clip-path="url(#p78778b014c)">
     <use xlink:href="#m5ce8db4f1a" x="230.371552" y="303.400694" style="fill: #9333ea; stroke: #ffffff; stroke-width: 0.5"/>
     <use xlink:href="#m5ce8db4f1a" x="217.119888" y="266.663948" style="fill: #9333ea; stroke: #ffffff; stroke-width: 0.5"/>
     <use xlink:href="#m5ce8db4f1a" x="233.718972" y="309.851134" style="fill: #9333ea; stroke: #ffffff; stroke-width: 0.5"/>
     <use xlink:href="#m5ce8db4f1a" x="227.342645" y="327.979178" style="fill: #9333ea; stroke: #ffffff; stroke-width: 0.5"/>
     <use xlink:href="#m5ce8db4f1a" x="203.487635" y="310.372649" style="fill: #9333ea; stroke: #ffffff; stroke-width: 0.5"/>
     <use xlink:href="#m5ce8db4f1a" x="238.347059" y="190.597303" style="fill: #9333ea; stroke: #ffffff; stroke-width: 0.5"/>
     <use xlink:href="#m5ce8db4f1a" x="229.86469" y="226.567398" style="fill: #9333ea; stroke: #ffffff; stroke-width: 0.5"/>
     <use xlink:href="#m5ce8db4f1a" x="230.850409" y="324.306945" style="fill: #9333ea; stroke: #ffffff; stroke-width: 0.5"/>
     <use xlink:href="#m5ce8db4f1a" x="204.829749" y="327.854206" style="fill: #9333ea; stroke: #ffffff; stroke-width: 0.5"/>
     <use xlink:href="#m5ce8db4f1a" x="217.574987" y="241.996543" style="fill: #9333ea; stroke: #ffffff; stroke-width: 0.5"/>
    </g>
   </g>
   <g id="PathCollection_3">
    <defs>
     <path id="m2e4934b72a" d="M 0 3.162278 
C 0.838646 3.162278 1.643056 2.82908 2.236068 2.236068 
C 2.82908 1.643056 3.162278 0.838646 3.162278 0 
C 3.162278 -0.838646 2.82908 -1.643056 2.236068 -2.236068 
C 1.643056 -2.82908 0.838646 -3.162278 0 -3.162278 
C -0.838646 -3.162278 -1.643056 -2.82908 -2.236068 -2.236068 
C -2.82908 -1.643056 -3.162278 -0.838646 -3.162278 0 
C -3.162278 0.838646 -2.82908 1.643056 -2.236068 2.236068 
C -1.643056 2.82908 -0.838646 3.162278 0 3.162278 
z
" style="stroke: #ffffff; stroke-width: 0.5"/>
    </defs>
    <g clip-path="url(#p78778b014c)">
     <use xlink:href="#m2e4934b72a" x="343.365957" y="293.203519" style="fill: #16a34a; stroke: #ffffff; stroke-width: 0.5"/>
     <use xlink:href="#m2e4934b72a" x="330.114294" y="293.612079" style="fill: #16a34a; stroke: #ffffff; stroke-width: 0.5"/>
     <use xlink:href="#m2e4934b72a" x="346.713377" y="270.042979" style="fill: #16a34a; stroke: #ffffff; stroke-width: 0.5"/>
     <use xlink:href="#m2e4934b72a" x="340.337051" y="338.678641" style="fill: #16a34a; stroke: #ffffff; stroke-width: 0.5"/>
     <use xlink:href="#m2e4934b72a" x="316.482041" y="245.202537" style="fill: #16a34a; stroke: #ffffff; stroke-width: 0.5"/>
     <use xlink:href="#m2e4934b72a" x="351.341465" y="269.504641" style="fill: #16a34a; stroke: #ffffff; stroke-width: 0.5"/>
     <use xlink:href="#m2e4934b72a" x="342.859096" y="324.636196" style="fill: #16a34a; stroke: #ffffff; stroke-width: 0.5"/>
     <use xlink:href="#m2e4934b72a" x="343.844815" y="239.826369" style="fill: #16a34a; stroke: #ffffff; stroke-width: 0.5"/>
     <use xlink:href="#m2e4934b72a" x="317.824154" y="280.987578" style="fill: #16a34a; stroke: #ffffff; stroke-width: 0.5"/>
     <use xlink:href="#m2e4934b72a" x="330.569393" y="308.291397" style="fill: #16a34a; stroke: #ffffff; stroke-width: 0.5"/>
    </g>
   </g>
   <g id="PathCollection_4">
    <defs>
     <path id="m3abc990877" d="M 0 3.162278 
C 0.838646 3.162278 1.643056 2.82908 2.236068 2.236068 
C 2.82908 1.643056 3.162278 0.838646 3.162278 0 
C 3.162278 -0.838646 2.82908 -1.643056 2.236068 -2.236068 
C 1.643056 -2.82908 0.838646 -3.162278 0 -3.162278 
C -0.838646 -3.162278 -1.643056 -2.82908 -2.236068 -2.236068 
C -2.82908 -1.643056 -3.162278 -0.838646 -3.162278 0 
C -3.162278 0.838646 -2.82908 1.643056 -2.236068 2.236068 
C -1.643056 2.82908 -0.838646 3.162278 0 3.162278 
z
" style="stroke: #ffffff; stroke-width: 0.5"/>
    </defs>
    <g clip-path="url(#p78778b014c)">
     <use xlink:href="#m3abc990877" x="456.360363" y="327.798931" style="fill: #d97706; stroke: #ffffff; stroke-width: 0.5"/>
     <use xlink:href="#m3abc990877" x="443.108699" y="341.711597" style="fill: #d97706; stroke: #ffffff; stroke-width: 0.5"/>
     <use xlink:href="#m3abc990877" x="459.707783" y="327.387968" style="fill: #d97706; stroke: #ffffff; stroke-width: 0.5"/>
     <use xlink:href="#m3abc990877" x="453.331457" y="318.327551" style="fill: #d97706; stroke: #ffffff; stroke-width: 0.5"/>
     <use xlink:href="#m3abc990877" x="429.476446" y="336.880977" style="fill: #d97706; stroke: #ffffff; stroke-width: 0.5"/>
     <use xlink:href="#m3abc990877" x="464.33587" y="314.876421" style="fill: #d97706; stroke: #ffffff; stroke-width: 0.5"/>
     <use xlink:href="#m3abc990877" x="455.853501" y="310.353423" style="fill: #d97706; stroke: #ffffff; stroke-width: 0.5"/>
     <use xlink:href="#m3abc990877" x="456.839221" y="332.115246" style="fill: #d97706; stroke: #ffffff; stroke-width: 0.5"/>
     <use xlink:href="#m3abc990877" x="430.81856" y="322.533314" style="fill: #d97706; stroke: #ffffff; stroke-width: 0.5"/>
     <use xlink:href="#m3abc990877" x="443.563798" y="323.554714" style="fill: #d97706; stroke: #ffffff; stroke-width: 0.5"/>
     <use xlink:href="#m3abc990877" x="440.416252" y="293.708211" style="fill: #d97706; stroke: #ffffff; stroke-width: 0.5"/>
     <use xlink:href="#m3abc990877" x="462.403657" y="306.645141" style="fill: #d97706; stroke: #ffffff; stroke-width: 0.5"/>
    </g>
   </g>
   <g id="PathCollection_5">
    <defs>
     <path id="ma30c37e386" d="M 0 3.162278 
C 0.838646 3.162278 1.643056 2.82908 2.236068 2.236068 
C 2.82908 1.643056 3.162278 0.838646 3.162278 0 
C 3.162278 -0.838646 2.82908 -1.643056 2.236068 -2.236068 
C 1.643056 -2.82908 0.838646 -3.162278 0 -3.162278 
C -0.838646 -3.162278 -1.643056 -2.82908 -2.236068 -2.236068 
C -2.82908 -1.643056 -3.162278 -0.838646 -3.162278 0 
C -3.162278 0.838646 -2.82908 1.643056 -2.236068 2.236068 
C -1.643056 2.82908 -0.838646 3.162278 0 3.162278 
z
" style="stroke: #ffffff; stroke-width: 0.5"/>
    </defs>
    <g clip-path="url(#p78778b014c)">
     <use xlink:href="#ma30c37e386" x="569.354768" y="339.387612" style="fill: #dc2626; stroke: #ffffff; stroke-width: 0.5"/>
     <use xlink:href="#ma30c37e386" x="556.103105" y="342.800289" style="fill: #dc2626; stroke: #ffffff; stroke-width: 0.5"/>
     <use xlink:href="#ma30c37e386" x="572.702189" y="343.110314" style="fill: #dc2626; stroke: #ffffff; stroke-width: 0.5"/>
     <use xlink:href="#ma30c37e386" x="566.325862" y="319.944967" style="fill: #dc2626; stroke: #ffffff; stroke-width: 0.5"/>
     <use xlink:href="#ma30c37e386" x="542.470852" y="325.905135" style="fill: #dc2626; stroke: #ffffff; stroke-width: 0.5"/>
     <use xlink:href="#ma30c37e386" x="577.330276" y="326.952971" style="fill: #dc2626; stroke: #ffffff; stroke-width: 0.5"/>
     <use xlink:href="#ma30c37e386" x="568.847907" y="331.776382" style="fill: #dc2626; stroke: #ffffff; stroke-width: 0.5"/>
     <use xlink:href="#ma30c37e386" x="569.833626" y="320.608276" style="fill: #dc2626; stroke: #ffffff; stroke-width: 0.5"/>
     <use xlink:href="#ma30c37e386" x="543.812965" y="318.56067" style="fill: #dc2626; stroke: #ffffff; stroke-width: 0.5"/>
     <use xlink:href="#ma30c37e386" x="556.558204" y="340.473901" style="fill: #dc2626; stroke: #ffffff; stroke-width: 0.5"/>
     <use xlink:href="#ma30c37e386" x="553.410658" y="331.903756" style="fill: #dc2626; stroke: #ffffff; stroke-width: 0.5"/>
     <use xlink:href="#ma30c37e386" x="575.398063" y="342.776256" style="fill: #dc2626; stroke: #ffffff; stroke-width: 0.5"/>
    </g>
   </g>
   <g id="PathCollection_6">
    <defs>
     <path id="m28049e8062" d="M 0 3.162278 
C 0.838646 3.162278 1.643056 2.82908 2.236068 2.236068 
C 2.82908 1.643056 3.162278 0.838646 3.162278 0 
C 3.162278 -0.838646 2.82908 -1.643056 2.236068 -2.236068 
C 1.643056 -2.82908 0.838646 -3.162278 0 -3.162278 
C -0.838646 -3.162278 -1.643056 -2.82908 -2.236068 -2.236068 
C -2.82908 -1.643056 -3.162278 -0.838646 -3.162278 0 
C -3.162278 0.838646 -2.82908 1.643056 -2.236068 2.236068 
C -1.643056 2.82908 -0.838646 3.162278 0 3.162278 
z
" style="stroke: #ffffff; stroke-width: 0.5"/>
    </defs>
    <g clip-path="url(#p78778b014c)">
     <use xlink:href="#m28049e8062" x="682.349174" y="306.698013" style="fill: #0891b2; stroke: #ffffff; stroke-width: 0.5"/>
     <use xlink:href="#m28049e8062" x="669.097511" y="346.337938" style="fill: #0891b2; stroke: #ffffff; stroke-width: 0.5"/>
     <use xlink:href="#m28049e8062" x="685.696594" y="331.670637" style="fill: #0891b2; stroke: #ffffff; stroke-width: 0.5"/>
     <use xlink:href="#m28049e8062" x="679.320268" y="330.507443" style="fill: #0891b2; stroke: #ffffff; stroke-width: 0.5"/>
     <use xlink:href="#m28049e8062" x="655.465257" y="342.168223" style="fill: #0891b2; stroke: #ffffff; stroke-width: 0.5"/>
     <use xlink:href="#m28049e8062" x="690.324681" y="342.120157" style="fill: #0891b2; stroke: #ffffff; stroke-width: 0.5"/>
     <use xlink:href="#m28049e8062" x="681.842313" y="344.927204" style="fill: #0891b2; stroke: #ffffff; stroke-width: 0.5"/>
     <use xlink:href="#m28049e8062" x="682.828032" y="323.542698" style="fill: #0891b2; stroke: #ffffff; stroke-width: 0.5"/>
     <use xlink:href="#m28049e8062" x="656.807371" y="308.313026" style="fill: #0891b2; stroke: #ffffff; stroke-width: 0.5"/>
     <use xlink:href="#m28049e8062" x="669.55261" y="339.935563" style="fill: #0891b2; stroke: #ffffff; stroke-width: 0.5"/>
     <use xlink:href="#m28049e8062" x="666.405064" y="334.395972" style="fill: #0891b2; stroke: #ffffff; stroke-width: 0.5"/>
     <use xlink:href="#m28049e8062" x="688.392468" y="338.032155" style="fill: #0891b2; stroke: #ffffff; stroke-width: 0.5"/>
     <use xlink:href="#m28049e8062" x="677.204332" y="348.183667" style="fill: #0891b2; stroke: #ffffff; stroke-width: 0.5"/>
    </g>
   </g>
   <g id="PathCollection_7">
    <defs>
     <path id="mf016e84443" d="M 0 3.162278 
C 0.838646 3.162278 1.643056 2.82908 2.236068 2.236068 
C 2.82908 1.643056 3.162278 0.838646 3.162278 0 
C 3.162278 -0.838646 2.82908 -1.643056 2.236068 -2.236068 
C 1.643056 -2.82908 0.838646 -3.162278 0 -3.162278 
C -0.838646 -3.162278 -1.643056 -2.82908 -2.236068 -2.236068 
C -2.82908 -1.643056 -3.162278 -0.838646 -3.162278 0 
C -3.162278 0.838646 -2.82908 1.643056 -2.236068 2.236068 
C -1.643056 2.82908 -0.838646 3.162278 0 3.162278 
z
" style="stroke: #ffffff; stroke-width: 0.5"/>
    </defs>
    <g clip-path="url(#p78778b014c)">
     <use xlink:href="#mf016e84443" x="795.34358" y="344.381657" style="fill: #6b7280; stroke: #ffffff; stroke-width: 0.5"/>
     <use xlink:href="#mf016e84443" x="782.091916" y="342.197063" style="fill: #6b7280; stroke: #ffffff; stroke-width: 0.5"/>
     <use xlink:href="#mf016e84443" x="798.691" y="338.032155" style="fill: #6b7280; stroke: #ffffff; stroke-width: 0.5"/>
     <use xlink:href="#mf016e84443" x="792.314673" y="347.229559" style="fill: #6b7280; stroke: #ffffff; stroke-width: 0.5"/>
     <use xlink:href="#mf016e84443" x="768.459663" y="330.166175" style="fill: #6b7280; stroke: #ffffff; stroke-width: 0.5"/>
     <use xlink:href="#mf016e84443" x="803.319087" y="316.140554" style="fill: #6b7280; stroke: #ffffff; stroke-width: 0.5"/>
     <use xlink:href="#mf016e84443" x="794.836718" y="340.906494" style="fill: #6b7280; stroke: #ffffff; stroke-width: 0.5"/>
     <use xlink:href="#mf016e84443" x="795.822437" y="313.761293" style="fill: #6b7280; stroke: #ffffff; stroke-width: 0.5"/>
     <use xlink:href="#mf016e84443" x="769.801777" y="340.002856" style="fill: #6b7280; stroke: #ffffff; stroke-width: 0.5"/>
     <use xlink:href="#mf016e84443" x="782.547015" y="313.266214" style="fill: #6b7280; stroke: #ffffff; stroke-width: 0.5"/>
    </g>
   </g>
   <g id="legend_1">
    <g id="patch_17">
     <path d="M 611.757188 100.868 
L 843.880938 100.868 
Q 845.480938 100.868 845.480938 99.268 
L 845.480938 41.3555 
Q 845.480938 39.7555 843.880938 39.7555 
L 611.757188 39.7555 
Q 610.157188 39.7555 610.157188 41.3555 
L 610.157188 99.268 
Q 610.157188 100.868 611.757188 100.868 
z
" style="fill: #ffffff; opacity: 0.8; stroke: #cccccc; stroke-linejoin: miter"/>
    </g>
    <g id="line2d_30">
     <path d="M 613.357188 46.23425 
L 621.357188 46.23425 
L 629.357188 46.23425 
" style="fill: none; stroke-dasharray: 4.44,1.92; stroke-dashoffset: 0; stroke: #000000; stroke-width: 1.2"/>
    </g>
    <g id="text_18">
     <!-- TES = 1 (strong threshold) -->
     <g transform="translate(635.757188 49.03425) scale(0.08 -0.08)">
      <use xlink:href="#DejaVuSans-54"/>
      <use xlink:href="#DejaVuSans-45" transform="translate(61.083984 0)"/>
      <use xlink:href="#DejaVuSans-53" transform="translate(124.267578 0)"/>
      <use xlink:href="#DejaVuSans-20" transform="translate(187.744141 0)"/>
      <use xlink:href="#DejaVuSans-3d" transform="translate(219.53125 0)"/>
      <use xlink:href="#DejaVuSans-20" transform="translate(303.320312 0)"/>
      <use xlink:href="#DejaVuSans-31" transform="translate(335.107422 0)"/>
      <use xlink:href="#DejaVuSans-20" transform="translate(398.730469 0)"/>
      <use xlink:href="#DejaVuSans-28" transform="translate(430.517578 0)"/>
      <use xlink:href="#DejaVuSans-73" transform="translate(469.53125 0)"/>
      <use xlink:href="#DejaVuSans-74" transform="translate(521.630859 0)"/>
      <use xlink:href="#DejaVuSans-72" transform="translate(560.839844 0)"/>
      <use xlink:href="#DejaVuSans-6f" transform="translate(599.703125 0)"/>
      <use xlink:href="#DejaVuSans-6e" transform="translate(660.884766 0)"/>
      <use xlink:href="#DejaVuSans-67" transform="translate(724.263672 0)"/>
      <use xlink:href="#DejaVuSans-20" transform="translate(787.740234 0)"/>
      <use xlink:href="#DejaVuSans-74" transform="translate(819.527344 0)"/>
      <use xlink:href="#DejaVuSans-68" transform="translate(858.736328 0)"/>
      <use xlink:href="#DejaVuSans-72" transform="translate(922.115234 0)"/>
      <use xlink:href="#DejaVuSans-65" transform="translate(960.978516 0)"/>
      <use xlink:href="#DejaVuSans-73" transform="translate(1022.501953 0)"/>
      <use xlink:href="#DejaVuSans-68" transform="translate(1074.601562 0)"/>
      <use xlink:href="#DejaVuSans-6f" transform="translate(1137.980469 0)"/>
      <use xlink:href="#DejaVuSans-6c" transform="translate(1199.162109 0)"/>
      <use xlink:href="#DejaVuSans-64" transform="translate(1226.945312 0)"/>
      <use xlink:href="#DejaVuSans-29" transform="translate(1290.421875 0)"/>
     </g>
    </g>
    <g id="patch_18">
     <path d="M 613.357188 60.77675 
L 629.357188 60.77675 
L 629.357188 55.17675 
L 613.357188 55.17675 
z
" style="fill: #008000; opacity: 0.1; stroke: #008000; stroke-linejoin: miter"/>
    </g>
    <g id="text_19">
     <!-- Strong zone (TES &gt; 1) -->
     <g transform="translate(635.757188 60.77675) scale(0.08 -0.08)">
      <defs>
       <path id="DejaVuSans-7a" d="M 353 3500 
L 3084 3500 
L 3084 2975 
L 922 459 
L 3084 459 
L 3084 0 
L 275 0 
L 275 525 
L 2438 3041 
L 353 3041 
L 353 3500 
z
" transform="scale(0.015625)"/>
       <path id="DejaVuSans-3e" d="M 678 3150 
L 678 3719 
L 4684 2266 
L 4684 1747 
L 678 294 
L 678 863 
L 3897 2003 
L 678 3150 
z
" transform="scale(0.015625)"/>
      </defs>
      <use xlink:href="#DejaVuSans-53"/>
      <use xlink:href="#DejaVuSans-74" transform="translate(63.476562 0)"/>
      <use xlink:href="#DejaVuSans-72" transform="translate(102.685547 0)"/>
      <use xlink:href="#DejaVuSans-6f" transform="translate(141.548828 0)"/>
      <use xlink:href="#DejaVuSans-6e" transform="translate(202.730469 0)"/>
      <use xlink:href="#DejaVuSans-67" transform="translate(266.109375 0)"/>
      <use xlink:href="#DejaVuSans-20" transform="translate(329.585938 0)"/>
      <use xlink:href="#DejaVuSans-7a" transform="translate(361.373047 0)"/>
      <use xlink:href="#DejaVuSans-6f" transform="translate(413.863281 0)"/>
      <use xlink:href="#DejaVuSans-6e" transform="translate(475.044922 0)"/>
      <use xlink:href="#DejaVuSans-65" transform="translate(538.423828 0)"/>
      <use xlink:href="#DejaVuSans-20" transform="translate(599.947266 0)"/>
      <use xlink:href="#DejaVuSans-28" transform="translate(631.734375 0)"/>
      <use xlink:href="#DejaVuSans-54" transform="translate(670.748047 0)"/>
      <use xlink:href="#DejaVuSans-45" transform="translate(731.832031 0)"/>
      <use xlink:href="#DejaVuSans-53" transform="translate(795.015625 0)"/>
      <use xlink:href="#DejaVuSans-20" transform="translate(858.492188 0)"/>
      <use xlink:href="#DejaVuSans-3e" transform="translate(890.279297 0)"/>
      <use xlink:href="#DejaVuSans-20" transform="translate(974.068359 0)"/>
      <use xlink:href="#DejaVuSans-31" transform="translate(1005.855469 0)"/>
      <use xlink:href="#DejaVuSans-29" transform="translate(1069.478516 0)"/>
     </g>
    </g>
    <g id="patch_19">
     <path d="M 613.357188 72.51925 
L 629.357188 72.51925 
L 629.357188 66.91925 
L 613.357188 66.91925 
z
" style="fill: #ff6200; opacity: 0.1; stroke: #ff6200; stroke-linejoin: miter"/>
    </g>
    <g id="text_20">
     <!-- Marginal zone (TES ≤ 1) -->
     <g transform="translate(635.757188 72.51925) scale(0.08 -0.08)">
      <defs>
       <path id="DejaVuSans-2264" d="M 4684 3175 
L 1684 2309 
L 4684 1453 
L 4684 897 
L 678 2047 
L 678 2578 
L 4684 3725 
L 4684 3175 
z
M 678 531 
L 4684 531 
L 4684 0 
L 678 0 
L 678 531 
z
" transform="scale(0.015625)"/>
      </defs>
      <use xlink:href="#DejaVuSans-4d"/>
      <use xlink:href="#DejaVuSans-61" transform="translate(86.279297 0)"/>
      <use xlink:href="#DejaVuSans-72" transform="translate(147.558594 0)"/>
      <use xlink:href="#DejaVuSans-67" transform="translate(186.921875 0)"/>
      <use xlink:href="#DejaVuSans-69" transform="translate(250.398438 0)"/>
      <use xlink:href="#DejaVuSans-6e" transform="translate(278.181641 0)"/>
      <use xlink:href="#DejaVuSans-61" transform="translate(341.560547 0)"/>
      <use xlink:href="#DejaVuSans-6c" transform="translate(402.839844 0)"/>
      <use xlink:href="#DejaVuSans-20" transform="translate(430.623047 0)"/>
      <use xlink:href="#DejaVuSans-7a" transform="translate(462.410156 0)"/>
      <use xlink:href="#DejaVuSans-6f" transform="translate(514.900391 0)"/>
      <use xlink:href="#DejaVuSans-6e" transform="translate(576.082031 0)"/>
      <use xlink:href="#DejaVuSans-65" transform="translate(639.460938 0)"/>
      <use xlink:href="#DejaVuSans-20" transform="translate(700.984375 0)"/>
      <use xlink:href="#DejaVuSans-28" transform="translate(732.771484 0)"/>
      <use xlink:href="#DejaVuSans-54" transform="translate(771.785156 0)"/>
      <use xlink:href="#DejaVuSans-45" transform="translate(832.869141 0)"/>
      <use xlink:href="#DejaVuSans-53" transform="translate(896.052734 0)"/>
      <use xlink:href="#DejaVuSans-20" transform="translate(959.529297 0)"/>
      <use xlink:href="#DejaVuSans-2264" transform="translate(991.316406 0)"/>
      <use xlink:href="#DejaVuSans-20" transform="translate(1075.105469 0)"/>
      <use xlink:href="#DejaVuSans-31" transform="translate(1106.892578 0)"/>
      <use xlink:href="#DejaVuSans-29" transform="translate(1170.515625 0)"/>
     </g>
    </g>
    <g id="patch_20">
     <path d="M 613.357188 84.26175 
L 629.357188 84.26175 
L 629.357188 78.66175 
L 613.357188 78.66175 
z
" style="fill: #2563eb; opacity: 0.75"/>
    </g>
    <g id="text_21">
     <!-- AIME 2025 -->
     <g transform="translate(635.757188 84.26175) scale(0.08 -0.08)">
      <use xlink:href="#DejaVuSans-41"/>
      <use xlink:href="#DejaVuSans-49" transform="translate(68.408203 0)"/>
      <use xlink:href="#DejaVuSans-4d" transform="translate(97.900391 0)"/>
      <use xlink:href="#DejaVuSans-45" transform="translate(184.179688 0)"/>
      <use xlink:href="#DejaVuSans-20" transform="translate(247.363281 0)"/>
      <use xlink:href="#DejaVuSans-32" transform="translate(279.150391 0)"/>
      <use xlink:href="#DejaVuSans-30" transform="translate(342.773438 0)"/>
      <use xlink:href="#DejaVuSans-32" transform="translate(406.396484 0)"/>
      <use xlink:href="#DejaVuSans-35" transform="translate(470.019531 0)"/>
     </g>
    </g>
    <g id="patch_21">
     <path d="M 613.357188 96.00425 
L 629.357188 96.00425 
L 629.357188 90.40425 
L 613.357188 90.40425 
z
" style="fill: #9333ea; opacity: 0.75"/>
    </g>
    <g id="text_22">
     <!-- IFBench -->
     <g transform="translate(635.757188 96.00425) scale(0.08 -0.08)">
      <use xlink:href="#DejaVuSans-49"/>
      <use xlink:href="#DejaVuSans-46" transform="translate(29.492188 0)"/>
      <use xlink:href="#DejaVuSans-42" transform="translate(87.011719 0)"/>
      <use xlink:href="#DejaVuSans-65" transform="translate(155.615234 0)"/>
      <use xlink:href="#DejaVuSans-6e" transform="translate(217.138672 0)"/>
      <use xlink:href="#DejaVuSans-63" transform="translate(280.517578 0)"/>
      <use xlink:href="#DejaVuSans-68" transform="translate(335.498047 0)"/>
     </g>
    </g>
    <g id="patch_22">
     <path d="M 758.110938 49.03425 
L 774.110938 49.03425 
L 774.110938 43.43425 
L 758.110938 43.43425 
z
" style="fill: #16a34a; opacity: 0.75"/>
    </g>
    <g id="text_23">
     <!-- LiveCodeBench -->
     <g transform="translate(780.510938 49.03425) scale(0.08 -0.08)">
      <use xlink:href="#DejaVuSans-4c"/>
      <use xlink:href="#DejaVuSans-69" transform="translate(55.712891 0)"/>
      <use xlink:href="#DejaVuSans-76" transform="translate(83.496094 0)"/>
      <use xlink:href="#DejaVuSans-65" transform="translate(142.675781 0)"/>
      <use xlink:href="#DejaVuSans-43" transform="translate(204.199219 0)"/>
      <use xlink:href="#DejaVuSans-6f" transform="translate(274.023438 0)"/>
      <use xlink:href="#DejaVuSans-64" transform="translate(335.205078 0)"/>
      <use xlink:href="#DejaVuSans-65" transform="translate(398.681641 0)"/>
      <use xlink:href="#DejaVuSans-42" transform="translate(460.205078 0)"/>
      <use xlink:href="#DejaVuSans-65" transform="translate(528.808594 0)"/>
      <use xlink:href="#DejaVuSans-6e" transform="translate(590.332031 0)"/>
      <use xlink:href="#DejaVuSans-63" transform="translate(653.710938 0)"/>
      <use xlink:href="#DejaVuSans-68" transform="translate(708.691406 0)"/>
     </g>
    </g>
    <g id="patch_23">
     <path d="M 758.110938 60.77675 
L 774.110938 60.77675 
L 774.110938 55.17675 
L 758.110938 55.17675 
z
" style="fill: #d97706; opacity: 0.75"/>
    </g>
    <g id="text_24">
     <!-- HLE -->
     <g transform="translate(780.510938 60.77675) scale(0.08 -0.08)">
      <use xlink:href="#DejaVuSans-48"/>
      <use xlink:href="#DejaVuSans-4c" transform="translate(75.195312 0)"/>
      <use xlink:href="#DejaVuSans-45" transform="translate(130.908203 0)"/>
     </g>
    </g>
    <g id="patch_24">
     <path d="M 758.110938 72.51925 
L 774.110938 72.51925 
L 774.110938 66.91925 
L 758.110938 66.91925 
z
" style="fill: #dc2626; opacity: 0.75"/>
    </g>
    <g id="text_25">
     <!-- GPQA Diamond -->
     <g transform="translate(780.510938 72.51925) scale(0.08 -0.08)">
      <use xlink:href="#DejaVuSans-47"/>
      <use xlink:href="#DejaVuSans-50" transform="translate(77.490234 0)"/>
      <use xlink:href="#DejaVuSans-51" transform="translate(137.792969 0)"/>
      <use xlink:href="#DejaVuSans-41" transform="translate(216.503906 0)"/>
      <use xlink:href="#DejaVuSans-20" transform="translate(284.912109 0)"/>
      <use xlink:href="#DejaVuSans-44" transform="translate(316.699219 0)"/>
      <use xlink:href="#DejaVuSans-69" transform="translate(393.701172 0)"/>
      <use xlink:href="#DejaVuSans-61" transform="translate(421.484375 0)"/>
      <use xlink:href="#DejaVuSans-6d" transform="translate(482.763672 0)"/>
      <use xlink:href="#DejaVuSans-6f" transform="translate(580.175781 0)"/>
      <use xlink:href="#DejaVuSans-6e" transform="translate(641.357422 0)"/>
      <use xlink:href="#DejaVuSans-64" transform="translate(704.736328 0)"/>
     </g>
    </g>
    <g id="patch_25">
     <path d="M 758.110938 84.26175 
L 774.110938 84.26175 
L 774.110938 78.66175 
L 758.110938 78.66175 
z
" style="fill: #0891b2; opacity: 0.75"/>
    </g>
    <g id="text_26">
     <!-- CritPt -->
     <g transform="translate(780.510938 84.26175) scale(0.08 -0.08)">
      <use xlink:href="#DejaVuSans-43"/>
      <use xlink:href="#DejaVuSans-72" transform="translate(69.824219 0)"/>
      <use xlink:href="#DejaVuSans-69" transform="translate(110.9375 0)"/>
      <use xlink:href="#DejaVuSans-74" transform="translate(138.720703 0)"/>
      <use xlink:href="#DejaVuSans-50" transform="translate(177.929688 0)"/>
      <use xlink:href="#DejaVuSans-74" transform="translate(238.232422 0)"/>
     </g>
    </g>
    <g id="patch_26">
     <path d="M 758.110938 96.00425 
L 774.110938 96.00425 
L 774.110938 90.40425 
L 758.110938 90.40425 
z
" style="fill: #6b7280; opacity: 0.75"/>
    </g>
    <g id="text_27">
     <!-- MMLU-Pro -->
     <g transform="translate(780.510938 96.00425) scale(0.08 -0.08)">
      <use xlink:href="#DejaVuSans-4d"/>
      <use xlink:href="#DejaVuSans-4d" transform="translate(86.279297 0)"/>
      <use xlink:href="#DejaVuSans-4c" transform="translate(172.558594 0)"/>
      <use xlink:href="#DejaVuSans-55" transform="translate(223.271484 0)"/>
      <use xlink:href="#DejaVuSans-2d" transform="translate(296.464844 0)"/>
      <use xlink:href="#DejaVuSans-50" transform="translate(332.548828 0)"/>
      <use xlink:href="#DejaVuSans-72" transform="translate(391.101562 0)"/>
      <use xlink:href="#DejaVuSans-6f" transform="translate(429.964844 0)"/>
     </g>
    </g>
   </g>
  </g>
 </g>
 <defs>
  <clipPath id="p78778b014c">
   <rect x="41.570938" y="35.7555" width="807.91" height="336.461103"/>
  </clipPath>
 </defs>
</svg>
